G04 #@! TF.GenerationSoftware,KiCad,Pcbnew,5.1.5+dfsg1-2build2*
G04 #@! TF.CreationDate,2020-07-13T22:27:38-05:00*
G04 #@! TF.ProjectId,kw41z-feather,6b773431-7a2d-4666-9561-746865722e6b,rev?*
G04 #@! TF.SameCoordinates,Original*
G04 #@! TF.FileFunction,Legend,Top*
G04 #@! TF.FilePolarity,Positive*
%FSLAX46Y46*%
G04 Gerber Fmt 4.6, Leading zero omitted, Abs format (unit mm)*
G04 Created by KiCad (PCBNEW 5.1.5+dfsg1-2build2) date 2020-07-13 22:27:38*
%MOMM*%
%LPD*%
G04 APERTURE LIST*
%ADD10C,0.150000*%
%ADD11C,0.120000*%
%ADD12C,0.254000*%
%ADD13C,0.127000*%
G04 APERTURE END LIST*
D10*
X155140476Y-82711904D02*
X154759523Y-82711904D01*
X154721428Y-83092857D01*
X154759523Y-83054761D01*
X154835714Y-83016666D01*
X155026190Y-83016666D01*
X155102380Y-83054761D01*
X155140476Y-83092857D01*
X155178571Y-83169047D01*
X155178571Y-83359523D01*
X155140476Y-83435714D01*
X155102380Y-83473809D01*
X155026190Y-83511904D01*
X154835714Y-83511904D01*
X154759523Y-83473809D01*
X154721428Y-83435714D01*
X157602380Y-82978571D02*
X157602380Y-83511904D01*
X157411904Y-82673809D02*
X157221428Y-83245238D01*
X157716666Y-83245238D01*
X159683333Y-82711904D02*
X160178571Y-82711904D01*
X159911904Y-83016666D01*
X160026190Y-83016666D01*
X160102380Y-83054761D01*
X160140476Y-83092857D01*
X160178571Y-83169047D01*
X160178571Y-83359523D01*
X160140476Y-83435714D01*
X160102380Y-83473809D01*
X160026190Y-83511904D01*
X159797619Y-83511904D01*
X159721428Y-83473809D01*
X159683333Y-83435714D01*
X162321428Y-82788095D02*
X162359523Y-82750000D01*
X162435714Y-82711904D01*
X162626190Y-82711904D01*
X162702380Y-82750000D01*
X162740476Y-82788095D01*
X162778571Y-82864285D01*
X162778571Y-82940476D01*
X162740476Y-83054761D01*
X162283333Y-83511904D01*
X162778571Y-83511904D01*
X170578571Y-84373809D02*
X170692857Y-84411904D01*
X170883333Y-84411904D01*
X170959523Y-84373809D01*
X170997619Y-84335714D01*
X171035714Y-84259523D01*
X171035714Y-84183333D01*
X170997619Y-84107142D01*
X170959523Y-84069047D01*
X170883333Y-84030952D01*
X170730952Y-83992857D01*
X170654761Y-83954761D01*
X170616666Y-83916666D01*
X170578571Y-83840476D01*
X170578571Y-83764285D01*
X170616666Y-83688095D01*
X170654761Y-83650000D01*
X170730952Y-83611904D01*
X170921428Y-83611904D01*
X171035714Y-83650000D01*
X171378571Y-84411904D02*
X171378571Y-83611904D01*
X171569047Y-83611904D01*
X171683333Y-83650000D01*
X171759523Y-83726190D01*
X171797619Y-83802380D01*
X171835714Y-83954761D01*
X171835714Y-84069047D01*
X171797619Y-84221428D01*
X171759523Y-84297619D01*
X171683333Y-84373809D01*
X171569047Y-84411904D01*
X171378571Y-84411904D01*
X172140476Y-84183333D02*
X172521428Y-84183333D01*
X172064285Y-84411904D02*
X172330952Y-83611904D01*
X172597619Y-84411904D01*
X168097619Y-84373809D02*
X168211904Y-84411904D01*
X168402380Y-84411904D01*
X168478571Y-84373809D01*
X168516666Y-84335714D01*
X168554761Y-84259523D01*
X168554761Y-84183333D01*
X168516666Y-84107142D01*
X168478571Y-84069047D01*
X168402380Y-84030952D01*
X168250000Y-83992857D01*
X168173809Y-83954761D01*
X168135714Y-83916666D01*
X168097619Y-83840476D01*
X168097619Y-83764285D01*
X168135714Y-83688095D01*
X168173809Y-83650000D01*
X168250000Y-83611904D01*
X168440476Y-83611904D01*
X168554761Y-83650000D01*
X169354761Y-84335714D02*
X169316666Y-84373809D01*
X169202380Y-84411904D01*
X169126190Y-84411904D01*
X169011904Y-84373809D01*
X168935714Y-84297619D01*
X168897619Y-84221428D01*
X168859523Y-84069047D01*
X168859523Y-83954761D01*
X168897619Y-83802380D01*
X168935714Y-83726190D01*
X169011904Y-83650000D01*
X169126190Y-83611904D01*
X169202380Y-83611904D01*
X169316666Y-83650000D01*
X169354761Y-83688095D01*
X170078571Y-84411904D02*
X169697619Y-84411904D01*
X169697619Y-83611904D01*
X167511904Y-82711904D02*
X167588095Y-82711904D01*
X167664285Y-82750000D01*
X167702380Y-82788095D01*
X167740476Y-82864285D01*
X167778571Y-83016666D01*
X167778571Y-83207142D01*
X167740476Y-83359523D01*
X167702380Y-83435714D01*
X167664285Y-83473809D01*
X167588095Y-83511904D01*
X167511904Y-83511904D01*
X167435714Y-83473809D01*
X167397619Y-83435714D01*
X167359523Y-83359523D01*
X167321428Y-83207142D01*
X167321428Y-83016666D01*
X167359523Y-82864285D01*
X167397619Y-82788095D01*
X167435714Y-82750000D01*
X167511904Y-82711904D01*
X165278571Y-83511904D02*
X164821428Y-83511904D01*
X165050000Y-83511904D02*
X165050000Y-82711904D01*
X164973809Y-82826190D01*
X164897619Y-82902380D01*
X164821428Y-82940476D01*
X142635714Y-83611904D02*
X142902380Y-84411904D01*
X143169047Y-83611904D01*
X143702380Y-83992857D02*
X143816666Y-84030952D01*
X143854761Y-84069047D01*
X143892857Y-84145238D01*
X143892857Y-84259523D01*
X143854761Y-84335714D01*
X143816666Y-84373809D01*
X143740476Y-84411904D01*
X143435714Y-84411904D01*
X143435714Y-83611904D01*
X143702380Y-83611904D01*
X143778571Y-83650000D01*
X143816666Y-83688095D01*
X143854761Y-83764285D01*
X143854761Y-83840476D01*
X143816666Y-83916666D01*
X143778571Y-83954761D01*
X143702380Y-83992857D01*
X143435714Y-83992857D01*
X144197619Y-84183333D02*
X144578571Y-84183333D01*
X144121428Y-84411904D02*
X144388095Y-83611904D01*
X144654761Y-84411904D01*
X144807142Y-83611904D02*
X145264285Y-83611904D01*
X145035714Y-84411904D02*
X145035714Y-83611904D01*
X145859523Y-83992857D02*
X146126190Y-83992857D01*
X146240476Y-84411904D02*
X145859523Y-84411904D01*
X145859523Y-83611904D01*
X146240476Y-83611904D01*
X146583333Y-84411904D02*
X146583333Y-83611904D01*
X147040476Y-84411904D01*
X147040476Y-83611904D01*
X147483333Y-83611904D02*
X147750000Y-84411904D01*
X148016666Y-83611904D01*
X148283333Y-83611904D02*
X148283333Y-84259523D01*
X148321428Y-84335714D01*
X148359523Y-84373809D01*
X148435714Y-84411904D01*
X148588095Y-84411904D01*
X148664285Y-84373809D01*
X148702380Y-84335714D01*
X148740476Y-84259523D01*
X148740476Y-83611904D01*
X149083333Y-84373809D02*
X149197619Y-84411904D01*
X149388095Y-84411904D01*
X149464285Y-84373809D01*
X149502380Y-84335714D01*
X149540476Y-84259523D01*
X149540476Y-84183333D01*
X149502380Y-84107142D01*
X149464285Y-84069047D01*
X149388095Y-84030952D01*
X149235714Y-83992857D01*
X149159523Y-83954761D01*
X149121428Y-83916666D01*
X149083333Y-83840476D01*
X149083333Y-83764285D01*
X149121428Y-83688095D01*
X149159523Y-83650000D01*
X149235714Y-83611904D01*
X149426190Y-83611904D01*
X149540476Y-83650000D01*
X150150000Y-83992857D02*
X150264285Y-84030952D01*
X150302380Y-84069047D01*
X150340476Y-84145238D01*
X150340476Y-84259523D01*
X150302380Y-84335714D01*
X150264285Y-84373809D01*
X150188095Y-84411904D01*
X149883333Y-84411904D01*
X149883333Y-83611904D01*
X150150000Y-83611904D01*
X150226190Y-83650000D01*
X150264285Y-83688095D01*
X150302380Y-83764285D01*
X150302380Y-83840476D01*
X150264285Y-83916666D01*
X150226190Y-83954761D01*
X150150000Y-83992857D01*
X149883333Y-83992857D01*
X151360714Y-84399404D02*
X150979761Y-84399404D01*
X150979761Y-83599404D01*
X151627380Y-83980357D02*
X151894047Y-83980357D01*
X152008333Y-84399404D02*
X151627380Y-84399404D01*
X151627380Y-83599404D01*
X152008333Y-83599404D01*
X152351190Y-84399404D02*
X152351190Y-83599404D01*
X152541666Y-83599404D01*
X152655952Y-83637500D01*
X152732142Y-83713690D01*
X152770238Y-83789880D01*
X152808333Y-83942261D01*
X152808333Y-84056547D01*
X152770238Y-84208928D01*
X152732142Y-84285119D01*
X152655952Y-84361309D01*
X152541666Y-84399404D01*
X152351190Y-84399404D01*
X170821428Y-101811904D02*
X170821428Y-101011904D01*
X171278571Y-101811904D01*
X171278571Y-101011904D01*
X172116666Y-101735714D02*
X172078571Y-101773809D01*
X171964285Y-101811904D01*
X171888095Y-101811904D01*
X171773809Y-101773809D01*
X171697619Y-101697619D01*
X171659523Y-101621428D01*
X171621428Y-101469047D01*
X171621428Y-101354761D01*
X171659523Y-101202380D01*
X171697619Y-101126190D01*
X171773809Y-101050000D01*
X171888095Y-101011904D01*
X171964285Y-101011904D01*
X172078571Y-101050000D01*
X172116666Y-101088095D01*
X132611904Y-101811904D02*
X132345238Y-101430952D01*
X132154761Y-101811904D02*
X132154761Y-101011904D01*
X132459523Y-101011904D01*
X132535714Y-101050000D01*
X132573809Y-101088095D01*
X132611904Y-101164285D01*
X132611904Y-101278571D01*
X132573809Y-101354761D01*
X132535714Y-101392857D01*
X132459523Y-101430952D01*
X132154761Y-101430952D01*
X132916666Y-101773809D02*
X133030952Y-101811904D01*
X133221428Y-101811904D01*
X133297619Y-101773809D01*
X133335714Y-101735714D01*
X133373809Y-101659523D01*
X133373809Y-101583333D01*
X133335714Y-101507142D01*
X133297619Y-101469047D01*
X133221428Y-101430952D01*
X133069047Y-101392857D01*
X132992857Y-101354761D01*
X132954761Y-101316666D01*
X132916666Y-101240476D01*
X132916666Y-101164285D01*
X132954761Y-101088095D01*
X132992857Y-101050000D01*
X133069047Y-101011904D01*
X133259523Y-101011904D01*
X133373809Y-101050000D01*
X133602380Y-101011904D02*
X134059523Y-101011904D01*
X133830952Y-101811904D02*
X133830952Y-101011904D01*
X134559523Y-101011904D02*
X135054761Y-101011904D01*
X134788095Y-101316666D01*
X134902380Y-101316666D01*
X134978571Y-101354761D01*
X135016666Y-101392857D01*
X135054761Y-101469047D01*
X135054761Y-101659523D01*
X135016666Y-101735714D01*
X134978571Y-101773809D01*
X134902380Y-101811904D01*
X134673809Y-101811904D01*
X134597619Y-101773809D01*
X134559523Y-101735714D01*
X135283333Y-101011904D02*
X135550000Y-101811904D01*
X135816666Y-101011904D01*
X136007142Y-101011904D02*
X136502380Y-101011904D01*
X136235714Y-101316666D01*
X136350000Y-101316666D01*
X136426190Y-101354761D01*
X136464285Y-101392857D01*
X136502380Y-101469047D01*
X136502380Y-101659523D01*
X136464285Y-101735714D01*
X136426190Y-101773809D01*
X136350000Y-101811904D01*
X136121428Y-101811904D01*
X136045238Y-101773809D01*
X136007142Y-101735714D01*
X137154761Y-101583333D02*
X137535714Y-101583333D01*
X137078571Y-101811904D02*
X137345238Y-101011904D01*
X137611904Y-101811904D01*
X138335714Y-101811904D02*
X138069047Y-101430952D01*
X137878571Y-101811904D02*
X137878571Y-101011904D01*
X138183333Y-101011904D01*
X138259523Y-101050000D01*
X138297619Y-101088095D01*
X138335714Y-101164285D01*
X138335714Y-101278571D01*
X138297619Y-101354761D01*
X138259523Y-101392857D01*
X138183333Y-101430952D01*
X137878571Y-101430952D01*
X138678571Y-101392857D02*
X138945238Y-101392857D01*
X139059523Y-101811904D02*
X138678571Y-101811904D01*
X138678571Y-101011904D01*
X139059523Y-101011904D01*
X139669047Y-101392857D02*
X139402380Y-101392857D01*
X139402380Y-101811904D02*
X139402380Y-101011904D01*
X139783333Y-101011904D01*
X140740476Y-101050000D02*
X140664285Y-101011904D01*
X140550000Y-101011904D01*
X140435714Y-101050000D01*
X140359523Y-101126190D01*
X140321428Y-101202380D01*
X140283333Y-101354761D01*
X140283333Y-101469047D01*
X140321428Y-101621428D01*
X140359523Y-101697619D01*
X140435714Y-101773809D01*
X140550000Y-101811904D01*
X140626190Y-101811904D01*
X140740476Y-101773809D01*
X140778571Y-101735714D01*
X140778571Y-101469047D01*
X140626190Y-101469047D01*
X141121428Y-101811904D02*
X141121428Y-101011904D01*
X141578571Y-101811904D01*
X141578571Y-101011904D01*
X141959523Y-101811904D02*
X141959523Y-101011904D01*
X142150000Y-101011904D01*
X142264285Y-101050000D01*
X142340476Y-101126190D01*
X142378571Y-101202380D01*
X142416666Y-101354761D01*
X142416666Y-101469047D01*
X142378571Y-101621428D01*
X142340476Y-101697619D01*
X142264285Y-101773809D01*
X142150000Y-101811904D01*
X141959523Y-101811904D01*
X143178571Y-101583333D02*
X143559523Y-101583333D01*
X143102380Y-101811904D02*
X143369047Y-101011904D01*
X143635714Y-101811904D01*
X144054761Y-101011904D02*
X144130952Y-101011904D01*
X144207142Y-101050000D01*
X144245238Y-101088095D01*
X144283333Y-101164285D01*
X144321428Y-101316666D01*
X144321428Y-101507142D01*
X144283333Y-101659523D01*
X144245238Y-101735714D01*
X144207142Y-101773809D01*
X144130952Y-101811904D01*
X144054761Y-101811904D01*
X143978571Y-101773809D01*
X143940476Y-101735714D01*
X143902380Y-101659523D01*
X143864285Y-101507142D01*
X143864285Y-101316666D01*
X143902380Y-101164285D01*
X143940476Y-101088095D01*
X143978571Y-101050000D01*
X144054761Y-101011904D01*
X145478571Y-101583333D02*
X145859523Y-101583333D01*
X145402380Y-101811904D02*
X145669047Y-101011904D01*
X145935714Y-101811904D01*
X146621428Y-101811904D02*
X146164285Y-101811904D01*
X146392857Y-101811904D02*
X146392857Y-101011904D01*
X146316666Y-101126190D01*
X146240476Y-101202380D01*
X146164285Y-101240476D01*
X148078571Y-101583333D02*
X148459523Y-101583333D01*
X148002380Y-101811904D02*
X148269047Y-101011904D01*
X148535714Y-101811904D01*
X148764285Y-101088095D02*
X148802380Y-101050000D01*
X148878571Y-101011904D01*
X149069047Y-101011904D01*
X149145238Y-101050000D01*
X149183333Y-101088095D01*
X149221428Y-101164285D01*
X149221428Y-101240476D01*
X149183333Y-101354761D01*
X148726190Y-101811904D01*
X149221428Y-101811904D01*
X150578571Y-101583333D02*
X150959523Y-101583333D01*
X150502380Y-101811904D02*
X150769047Y-101011904D01*
X151035714Y-101811904D01*
X151226190Y-101011904D02*
X151721428Y-101011904D01*
X151454761Y-101316666D01*
X151569047Y-101316666D01*
X151645238Y-101354761D01*
X151683333Y-101392857D01*
X151721428Y-101469047D01*
X151721428Y-101659523D01*
X151683333Y-101735714D01*
X151645238Y-101773809D01*
X151569047Y-101811904D01*
X151340476Y-101811904D01*
X151264285Y-101773809D01*
X151226190Y-101735714D01*
X152796428Y-101799404D02*
X152796428Y-100999404D01*
X153253571Y-101799404D01*
X153253571Y-100999404D01*
X154091666Y-101723214D02*
X154053571Y-101761309D01*
X153939285Y-101799404D01*
X153863095Y-101799404D01*
X153748809Y-101761309D01*
X153672619Y-101685119D01*
X153634523Y-101608928D01*
X153596428Y-101456547D01*
X153596428Y-101342261D01*
X153634523Y-101189880D01*
X153672619Y-101113690D01*
X153748809Y-101037500D01*
X153863095Y-100999404D01*
X153939285Y-100999404D01*
X154053571Y-101037500D01*
X154091666Y-101075595D01*
X154996428Y-101799404D02*
X154996428Y-100999404D01*
X155453571Y-101799404D01*
X155453571Y-100999404D01*
X156291666Y-101723214D02*
X156253571Y-101761309D01*
X156139285Y-101799404D01*
X156063095Y-101799404D01*
X155948809Y-101761309D01*
X155872619Y-101685119D01*
X155834523Y-101608928D01*
X155796428Y-101456547D01*
X155796428Y-101342261D01*
X155834523Y-101189880D01*
X155872619Y-101113690D01*
X155948809Y-101037500D01*
X156063095Y-100999404D01*
X156139285Y-100999404D01*
X156253571Y-101037500D01*
X156291666Y-101075595D01*
X157046428Y-101773809D02*
X157160714Y-101811904D01*
X157351190Y-101811904D01*
X157427380Y-101773809D01*
X157465476Y-101735714D01*
X157503571Y-101659523D01*
X157503571Y-101583333D01*
X157465476Y-101507142D01*
X157427380Y-101469047D01*
X157351190Y-101430952D01*
X157198809Y-101392857D01*
X157122619Y-101354761D01*
X157084523Y-101316666D01*
X157046428Y-101240476D01*
X157046428Y-101164285D01*
X157084523Y-101088095D01*
X157122619Y-101050000D01*
X157198809Y-101011904D01*
X157389285Y-101011904D01*
X157503571Y-101050000D01*
X158303571Y-101735714D02*
X158265476Y-101773809D01*
X158151190Y-101811904D01*
X158075000Y-101811904D01*
X157960714Y-101773809D01*
X157884523Y-101697619D01*
X157846428Y-101621428D01*
X157808333Y-101469047D01*
X157808333Y-101354761D01*
X157846428Y-101202380D01*
X157884523Y-101126190D01*
X157960714Y-101050000D01*
X158075000Y-101011904D01*
X158151190Y-101011904D01*
X158265476Y-101050000D01*
X158303571Y-101088095D01*
X158646428Y-101811904D02*
X158646428Y-101011904D01*
X159103571Y-101811904D02*
X158760714Y-101354761D01*
X159103571Y-101011904D02*
X158646428Y-101469047D01*
X159717857Y-101811904D02*
X159717857Y-101011904D01*
X159984523Y-101583333D01*
X160251190Y-101011904D01*
X160251190Y-101811904D01*
X160784523Y-101011904D02*
X160936904Y-101011904D01*
X161013095Y-101050000D01*
X161089285Y-101126190D01*
X161127380Y-101278571D01*
X161127380Y-101545238D01*
X161089285Y-101697619D01*
X161013095Y-101773809D01*
X160936904Y-101811904D01*
X160784523Y-101811904D01*
X160708333Y-101773809D01*
X160632142Y-101697619D01*
X160594047Y-101545238D01*
X160594047Y-101278571D01*
X160632142Y-101126190D01*
X160708333Y-101050000D01*
X160784523Y-101011904D01*
X161432142Y-101773809D02*
X161546428Y-101811904D01*
X161736904Y-101811904D01*
X161813095Y-101773809D01*
X161851190Y-101735714D01*
X161889285Y-101659523D01*
X161889285Y-101583333D01*
X161851190Y-101507142D01*
X161813095Y-101469047D01*
X161736904Y-101430952D01*
X161584523Y-101392857D01*
X161508333Y-101354761D01*
X161470238Y-101316666D01*
X161432142Y-101240476D01*
X161432142Y-101164285D01*
X161470238Y-101088095D01*
X161508333Y-101050000D01*
X161584523Y-101011904D01*
X161775000Y-101011904D01*
X161889285Y-101050000D01*
X162232142Y-101811904D02*
X162232142Y-101011904D01*
X162867857Y-101811904D02*
X162867857Y-101011904D01*
X163134523Y-101583333D01*
X163401190Y-101011904D01*
X163401190Y-101811904D01*
X163782142Y-101811904D02*
X163782142Y-101011904D01*
X164125000Y-101773809D02*
X164239285Y-101811904D01*
X164429761Y-101811904D01*
X164505952Y-101773809D01*
X164544047Y-101735714D01*
X164582142Y-101659523D01*
X164582142Y-101583333D01*
X164544047Y-101507142D01*
X164505952Y-101469047D01*
X164429761Y-101430952D01*
X164277380Y-101392857D01*
X164201190Y-101354761D01*
X164163095Y-101316666D01*
X164125000Y-101240476D01*
X164125000Y-101164285D01*
X164163095Y-101088095D01*
X164201190Y-101050000D01*
X164277380Y-101011904D01*
X164467857Y-101011904D01*
X164582142Y-101050000D01*
X165077380Y-101011904D02*
X165229761Y-101011904D01*
X165305952Y-101050000D01*
X165382142Y-101126190D01*
X165420238Y-101278571D01*
X165420238Y-101545238D01*
X165382142Y-101697619D01*
X165305952Y-101773809D01*
X165229761Y-101811904D01*
X165077380Y-101811904D01*
X165001190Y-101773809D01*
X164925000Y-101697619D01*
X164886904Y-101545238D01*
X164886904Y-101278571D01*
X164925000Y-101126190D01*
X165001190Y-101050000D01*
X165077380Y-101011904D01*
X168340476Y-101011904D02*
X168797619Y-101011904D01*
X168569047Y-101811904D02*
X168569047Y-101011904D01*
X168988095Y-101011904D02*
X169521428Y-101811904D01*
X169521428Y-101011904D02*
X168988095Y-101811904D01*
X166516666Y-101811904D02*
X166250000Y-101430952D01*
X166059523Y-101811904D02*
X166059523Y-101011904D01*
X166364285Y-101011904D01*
X166440476Y-101050000D01*
X166478571Y-101088095D01*
X166516666Y-101164285D01*
X166516666Y-101278571D01*
X166478571Y-101354761D01*
X166440476Y-101392857D01*
X166364285Y-101430952D01*
X166059523Y-101430952D01*
X166783333Y-101011904D02*
X167316666Y-101811904D01*
X167316666Y-101011904D02*
X166783333Y-101811904D01*
D11*
X150165000Y-86085000D02*
X152450000Y-86085000D01*
X150165000Y-84615000D02*
X150165000Y-86085000D01*
X152450000Y-84615000D02*
X150165000Y-84615000D01*
X133435000Y-85335000D02*
X133435000Y-82450000D01*
X131865000Y-85335000D02*
X133435000Y-85335000D01*
X131865000Y-82450000D02*
X131865000Y-85335000D01*
X142112779Y-94140000D02*
X141787221Y-94140000D01*
X142112779Y-95160000D02*
X141787221Y-95160000D01*
X131812779Y-86940000D02*
X131487221Y-86940000D01*
X131812779Y-87960000D02*
X131487221Y-87960000D01*
X138212779Y-92540000D02*
X137887221Y-92540000D01*
X138212779Y-93560000D02*
X137887221Y-93560000D01*
X138212779Y-90040000D02*
X137887221Y-90040000D01*
X138212779Y-91060000D02*
X137887221Y-91060000D01*
X133587221Y-96160000D02*
X133912779Y-96160000D01*
X133587221Y-95140000D02*
X133912779Y-95140000D01*
X134390000Y-97470000D02*
X135850000Y-97470000D01*
X134390000Y-100630000D02*
X136550000Y-100630000D01*
X134390000Y-100630000D02*
X134390000Y-99700000D01*
X134390000Y-97470000D02*
X134390000Y-98400000D01*
X137680000Y-99920000D02*
X137680000Y-99620000D01*
X141820000Y-96780000D02*
X141820000Y-97080000D01*
X141820000Y-99620000D02*
X141820000Y-99920000D01*
X137680000Y-96780000D02*
X141820000Y-96780000D01*
X137680000Y-97080000D02*
X137680000Y-96780000D01*
X141820000Y-99920000D02*
X137680000Y-99920000D01*
X142350000Y-90340000D02*
X139900000Y-90340000D01*
X140550000Y-93560000D02*
X142350000Y-93560000D01*
X146810000Y-89630000D02*
X145350000Y-89630000D01*
X146810000Y-86470000D02*
X144650000Y-86470000D01*
X146810000Y-86470000D02*
X146810000Y-87400000D01*
X146810000Y-89630000D02*
X146810000Y-88700000D01*
X144612779Y-99340000D02*
X144287221Y-99340000D01*
X144612779Y-100360000D02*
X144287221Y-100360000D01*
X144612779Y-97840000D02*
X144287221Y-97840000D01*
X144612779Y-98860000D02*
X144287221Y-98860000D01*
X154487221Y-99760000D02*
X154812779Y-99760000D01*
X154487221Y-98740000D02*
X154812779Y-98740000D01*
D12*
X165442900Y-84287800D02*
X165442900Y-83749000D01*
X159780700Y-89950000D02*
X165442900Y-95612200D01*
X165442900Y-84287800D02*
X159780700Y-89950000D01*
X165442900Y-84287800D02*
X171105100Y-89950000D01*
X171105100Y-89950000D02*
X165442900Y-95612200D01*
D11*
X131812779Y-97340000D02*
X131487221Y-97340000D01*
X131812779Y-98360000D02*
X131487221Y-98360000D01*
X146387221Y-93260000D02*
X146712779Y-93260000D01*
X146387221Y-92240000D02*
X146712779Y-92240000D01*
X146712779Y-94240000D02*
X146387221Y-94240000D01*
X146712779Y-95260000D02*
X146387221Y-95260000D01*
X158460000Y-90140000D02*
X158460000Y-89240000D01*
X151240000Y-96460000D02*
X152140000Y-96460000D01*
X151240000Y-95560000D02*
X151240000Y-96460000D01*
X151240000Y-89240000D02*
X152140000Y-89240000D01*
X151240000Y-90140000D02*
X151240000Y-89240000D01*
X158460000Y-96460000D02*
X157560000Y-96460000D01*
X158460000Y-95560000D02*
X158460000Y-96460000D01*
X130135000Y-97115000D02*
X127850000Y-97115000D01*
X130135000Y-98585000D02*
X130135000Y-97115000D01*
X127850000Y-98585000D02*
X130135000Y-98585000D01*
X130135000Y-86715000D02*
X127850000Y-86715000D01*
X130135000Y-88185000D02*
X130135000Y-86715000D01*
X127850000Y-88185000D02*
X130135000Y-88185000D01*
X136765000Y-95385000D02*
X139050000Y-95385000D01*
X136765000Y-93915000D02*
X136765000Y-95385000D01*
X139050000Y-93915000D02*
X136765000Y-93915000D01*
X170875000Y-100037500D02*
X170875000Y-97737500D01*
X170875000Y-97737500D02*
X168175000Y-97737500D01*
X163550000Y-95250000D02*
X161150000Y-95250000D01*
X161150000Y-95250000D02*
X161150000Y-96850000D01*
X161150000Y-96850000D02*
X163550000Y-96850000D01*
X159350000Y-84200000D02*
X155350000Y-84200000D01*
X159350000Y-87500000D02*
X159350000Y-84200000D01*
X135550000Y-90440000D02*
X133100000Y-90440000D01*
X133750000Y-93660000D02*
X135550000Y-93660000D01*
X159575000Y-97327500D02*
X157125000Y-97327500D01*
X157775000Y-100547500D02*
X159575000Y-100547500D01*
X144085000Y-87435000D02*
X144085000Y-85150000D01*
X142615000Y-87435000D02*
X144085000Y-87435000D01*
X142615000Y-85150000D02*
X142615000Y-87435000D01*
X146387221Y-91760000D02*
X146712779Y-91760000D01*
X146387221Y-90740000D02*
X146712779Y-90740000D01*
X146712779Y-95740000D02*
X146387221Y-95740000D01*
X146712779Y-96760000D02*
X146387221Y-96760000D01*
X133710000Y-86116000D02*
X133710000Y-86966000D01*
X133710000Y-86966000D02*
X136035000Y-86966000D01*
X136035000Y-86966000D02*
X136035000Y-89356000D01*
X141880000Y-86116000D02*
X141880000Y-86966000D01*
X141880000Y-86966000D02*
X139555000Y-86966000D01*
X133710000Y-82596000D02*
X133710000Y-81746000D01*
X133710000Y-81746000D02*
X141880000Y-81746000D01*
X141880000Y-81746000D02*
X141880000Y-82596000D01*
X131556500Y-88810000D02*
X131556500Y-89260000D01*
X129706500Y-88810000D02*
X131556500Y-88810000D01*
X127156500Y-96610000D02*
X127406500Y-96610000D01*
X127156500Y-88810000D02*
X127406500Y-88810000D01*
X129706500Y-96610000D02*
X131556500Y-96610000D01*
X131556500Y-96610000D02*
X131556500Y-96160000D01*
X132106500Y-91010000D02*
X132106500Y-91460000D01*
X132106500Y-91010000D02*
X131656500Y-91010000D01*
D13*
X172900380Y-90300571D02*
X172852000Y-90264285D01*
X172803619Y-90191714D01*
X172803619Y-90010285D01*
X172852000Y-89937714D01*
X172900380Y-89901428D01*
X172997142Y-89865142D01*
X173093904Y-89865142D01*
X173239047Y-89901428D01*
X173819619Y-90336857D01*
X173819619Y-89865142D01*
X173722857Y-89538571D02*
X173771238Y-89502285D01*
X173819619Y-89538571D01*
X173771238Y-89574857D01*
X173722857Y-89538571D01*
X173819619Y-89538571D01*
X173142285Y-88849142D02*
X173819619Y-88849142D01*
X172755238Y-89030571D02*
X173480952Y-89212000D01*
X173480952Y-88740285D01*
X172852000Y-88050857D02*
X172803619Y-88123428D01*
X172803619Y-88232285D01*
X172852000Y-88341142D01*
X172948761Y-88413714D01*
X173045523Y-88450000D01*
X173239047Y-88486285D01*
X173384190Y-88486285D01*
X173577714Y-88450000D01*
X173674476Y-88413714D01*
X173771238Y-88341142D01*
X173819619Y-88232285D01*
X173819619Y-88159714D01*
X173771238Y-88050857D01*
X173722857Y-88014571D01*
X173384190Y-88014571D01*
X173384190Y-88159714D01*
X173819619Y-87688000D02*
X172803619Y-87688000D01*
X173287428Y-87688000D02*
X173287428Y-87252571D01*
X173819619Y-87252571D02*
X172803619Y-87252571D01*
X173142285Y-86962285D02*
X173142285Y-86563142D01*
X173819619Y-86962285D01*
X173819619Y-86563142D01*
D10*
X150216666Y-88111904D02*
X149950000Y-87730952D01*
X149759523Y-88111904D02*
X149759523Y-87311904D01*
X150064285Y-87311904D01*
X150140476Y-87350000D01*
X150178571Y-87388095D01*
X150216666Y-87464285D01*
X150216666Y-87578571D01*
X150178571Y-87654761D01*
X150140476Y-87692857D01*
X150064285Y-87730952D01*
X149759523Y-87730952D01*
X150902380Y-87311904D02*
X150750000Y-87311904D01*
X150673809Y-87350000D01*
X150635714Y-87388095D01*
X150559523Y-87502380D01*
X150521428Y-87654761D01*
X150521428Y-87959523D01*
X150559523Y-88035714D01*
X150597619Y-88073809D01*
X150673809Y-88111904D01*
X150826190Y-88111904D01*
X150902380Y-88073809D01*
X150940476Y-88035714D01*
X150978571Y-87959523D01*
X150978571Y-87769047D01*
X150940476Y-87692857D01*
X150902380Y-87654761D01*
X150826190Y-87616666D01*
X150673809Y-87616666D01*
X150597619Y-87654761D01*
X150559523Y-87692857D01*
X150521428Y-87769047D01*
X150216666Y-89111904D02*
X149950000Y-88730952D01*
X149759523Y-89111904D02*
X149759523Y-88311904D01*
X150064285Y-88311904D01*
X150140476Y-88350000D01*
X150178571Y-88388095D01*
X150216666Y-88464285D01*
X150216666Y-88578571D01*
X150178571Y-88654761D01*
X150140476Y-88692857D01*
X150064285Y-88730952D01*
X149759523Y-88730952D01*
X150902380Y-88578571D02*
X150902380Y-89111904D01*
X150711904Y-88273809D02*
X150521428Y-88845238D01*
X151016666Y-88845238D01*
X133935714Y-88864285D02*
X133973809Y-88902380D01*
X134011904Y-89016666D01*
X134011904Y-89092857D01*
X133973809Y-89207142D01*
X133897619Y-89283333D01*
X133821428Y-89321428D01*
X133669047Y-89359523D01*
X133554761Y-89359523D01*
X133402380Y-89321428D01*
X133326190Y-89283333D01*
X133250000Y-89207142D01*
X133211904Y-89092857D01*
X133211904Y-89016666D01*
X133250000Y-88902380D01*
X133288095Y-88864285D01*
X134011904Y-88102380D02*
X134011904Y-88559523D01*
X134011904Y-88330952D02*
X133211904Y-88330952D01*
X133326190Y-88407142D01*
X133402380Y-88483333D01*
X133440476Y-88559523D01*
X133211904Y-87835714D02*
X133211904Y-87302380D01*
X134011904Y-87645238D01*
X146035714Y-85611904D02*
X145769047Y-85230952D01*
X145578571Y-85611904D02*
X145578571Y-84811904D01*
X145883333Y-84811904D01*
X145959523Y-84850000D01*
X145997619Y-84888095D01*
X146035714Y-84964285D01*
X146035714Y-85078571D01*
X145997619Y-85154761D01*
X145959523Y-85192857D01*
X145883333Y-85230952D01*
X145578571Y-85230952D01*
X146797619Y-85611904D02*
X146340476Y-85611904D01*
X146569047Y-85611904D02*
X146569047Y-84811904D01*
X146492857Y-84926190D01*
X146416666Y-85002380D01*
X146340476Y-85040476D01*
X147483333Y-85078571D02*
X147483333Y-85611904D01*
X147292857Y-84773809D02*
X147102380Y-85345238D01*
X147597619Y-85345238D01*
X154116666Y-86105714D02*
X154078571Y-86143809D01*
X153964285Y-86181904D01*
X153888095Y-86181904D01*
X153773809Y-86143809D01*
X153697619Y-86067619D01*
X153659523Y-85991428D01*
X153621428Y-85839047D01*
X153621428Y-85724761D01*
X153659523Y-85572380D01*
X153697619Y-85496190D01*
X153773809Y-85420000D01*
X153888095Y-85381904D01*
X153964285Y-85381904D01*
X154078571Y-85420000D01*
X154116666Y-85458095D01*
X154421428Y-85458095D02*
X154459523Y-85420000D01*
X154535714Y-85381904D01*
X154726190Y-85381904D01*
X154802380Y-85420000D01*
X154840476Y-85458095D01*
X154878571Y-85534285D01*
X154878571Y-85610476D01*
X154840476Y-85724761D01*
X154383333Y-86181904D01*
X154878571Y-86181904D01*
X160316666Y-86605714D02*
X160278571Y-86643809D01*
X160164285Y-86681904D01*
X160088095Y-86681904D01*
X159973809Y-86643809D01*
X159897619Y-86567619D01*
X159859523Y-86491428D01*
X159821428Y-86339047D01*
X159821428Y-86224761D01*
X159859523Y-86072380D01*
X159897619Y-85996190D01*
X159973809Y-85920000D01*
X160088095Y-85881904D01*
X160164285Y-85881904D01*
X160278571Y-85920000D01*
X160316666Y-85958095D01*
X161078571Y-86681904D02*
X160621428Y-86681904D01*
X160850000Y-86681904D02*
X160850000Y-85881904D01*
X160773809Y-85996190D01*
X160697619Y-86072380D01*
X160621428Y-86110476D01*
X150216666Y-87035714D02*
X150178571Y-87073809D01*
X150064285Y-87111904D01*
X149988095Y-87111904D01*
X149873809Y-87073809D01*
X149797619Y-86997619D01*
X149759523Y-86921428D01*
X149721428Y-86769047D01*
X149721428Y-86654761D01*
X149759523Y-86502380D01*
X149797619Y-86426190D01*
X149873809Y-86350000D01*
X149988095Y-86311904D01*
X150064285Y-86311904D01*
X150178571Y-86350000D01*
X150216666Y-86388095D01*
X150940476Y-86311904D02*
X150559523Y-86311904D01*
X150521428Y-86692857D01*
X150559523Y-86654761D01*
X150635714Y-86616666D01*
X150826190Y-86616666D01*
X150902380Y-86654761D01*
X150940476Y-86692857D01*
X150978571Y-86769047D01*
X150978571Y-86959523D01*
X150940476Y-87035714D01*
X150902380Y-87073809D01*
X150826190Y-87111904D01*
X150635714Y-87111904D01*
X150559523Y-87073809D01*
X150521428Y-87035714D01*
X144216666Y-95011904D02*
X143950000Y-94630952D01*
X143759523Y-95011904D02*
X143759523Y-94211904D01*
X144064285Y-94211904D01*
X144140476Y-94250000D01*
X144178571Y-94288095D01*
X144216666Y-94364285D01*
X144216666Y-94478571D01*
X144178571Y-94554761D01*
X144140476Y-94592857D01*
X144064285Y-94630952D01*
X143759523Y-94630952D01*
X144483333Y-94211904D02*
X145016666Y-94211904D01*
X144673809Y-95011904D01*
X131516666Y-86611904D02*
X131250000Y-86230952D01*
X131059523Y-86611904D02*
X131059523Y-85811904D01*
X131364285Y-85811904D01*
X131440476Y-85850000D01*
X131478571Y-85888095D01*
X131516666Y-85964285D01*
X131516666Y-86078571D01*
X131478571Y-86154761D01*
X131440476Y-86192857D01*
X131364285Y-86230952D01*
X131059523Y-86230952D01*
X131973809Y-86154761D02*
X131897619Y-86116666D01*
X131859523Y-86078571D01*
X131821428Y-86002380D01*
X131821428Y-85964285D01*
X131859523Y-85888095D01*
X131897619Y-85850000D01*
X131973809Y-85811904D01*
X132126190Y-85811904D01*
X132202380Y-85850000D01*
X132240476Y-85888095D01*
X132278571Y-85964285D01*
X132278571Y-86002380D01*
X132240476Y-86078571D01*
X132202380Y-86116666D01*
X132126190Y-86154761D01*
X131973809Y-86154761D01*
X131897619Y-86192857D01*
X131859523Y-86230952D01*
X131821428Y-86307142D01*
X131821428Y-86459523D01*
X131859523Y-86535714D01*
X131897619Y-86573809D01*
X131973809Y-86611904D01*
X132126190Y-86611904D01*
X132202380Y-86573809D01*
X132240476Y-86535714D01*
X132278571Y-86459523D01*
X132278571Y-86307142D01*
X132240476Y-86230952D01*
X132202380Y-86192857D01*
X132126190Y-86154761D01*
X137535714Y-92311904D02*
X137269047Y-91930952D01*
X137078571Y-92311904D02*
X137078571Y-91511904D01*
X137383333Y-91511904D01*
X137459523Y-91550000D01*
X137497619Y-91588095D01*
X137535714Y-91664285D01*
X137535714Y-91778571D01*
X137497619Y-91854761D01*
X137459523Y-91892857D01*
X137383333Y-91930952D01*
X137078571Y-91930952D01*
X138297619Y-92311904D02*
X137840476Y-92311904D01*
X138069047Y-92311904D02*
X138069047Y-91511904D01*
X137992857Y-91626190D01*
X137916666Y-91702380D01*
X137840476Y-91740476D01*
X138564285Y-91511904D02*
X139059523Y-91511904D01*
X138792857Y-91816666D01*
X138907142Y-91816666D01*
X138983333Y-91854761D01*
X139021428Y-91892857D01*
X139059523Y-91969047D01*
X139059523Y-92159523D01*
X139021428Y-92235714D01*
X138983333Y-92273809D01*
X138907142Y-92311904D01*
X138678571Y-92311904D01*
X138602380Y-92273809D01*
X138564285Y-92235714D01*
X140216666Y-90111904D02*
X139950000Y-89730952D01*
X139759523Y-90111904D02*
X139759523Y-89311904D01*
X140064285Y-89311904D01*
X140140476Y-89350000D01*
X140178571Y-89388095D01*
X140216666Y-89464285D01*
X140216666Y-89578571D01*
X140178571Y-89654761D01*
X140140476Y-89692857D01*
X140064285Y-89730952D01*
X139759523Y-89730952D01*
X140978571Y-90111904D02*
X140521428Y-90111904D01*
X140750000Y-90111904D02*
X140750000Y-89311904D01*
X140673809Y-89426190D01*
X140597619Y-89502380D01*
X140521428Y-89540476D01*
X135716666Y-96111904D02*
X135450000Y-95730952D01*
X135259523Y-96111904D02*
X135259523Y-95311904D01*
X135564285Y-95311904D01*
X135640476Y-95350000D01*
X135678571Y-95388095D01*
X135716666Y-95464285D01*
X135716666Y-95578571D01*
X135678571Y-95654761D01*
X135640476Y-95692857D01*
X135564285Y-95730952D01*
X135259523Y-95730952D01*
X136440476Y-95311904D02*
X136059523Y-95311904D01*
X136021428Y-95692857D01*
X136059523Y-95654761D01*
X136135714Y-95616666D01*
X136326190Y-95616666D01*
X136402380Y-95654761D01*
X136440476Y-95692857D01*
X136478571Y-95769047D01*
X136478571Y-95959523D01*
X136440476Y-96035714D01*
X136402380Y-96073809D01*
X136326190Y-96111904D01*
X136135714Y-96111904D01*
X136059523Y-96073809D01*
X136021428Y-96035714D01*
X133373809Y-100588095D02*
X133297619Y-100550000D01*
X133221428Y-100473809D01*
X133107142Y-100359523D01*
X133030952Y-100321428D01*
X132954761Y-100321428D01*
X132992857Y-100511904D02*
X132916666Y-100473809D01*
X132840476Y-100397619D01*
X132802380Y-100245238D01*
X132802380Y-99978571D01*
X132840476Y-99826190D01*
X132916666Y-99750000D01*
X132992857Y-99711904D01*
X133145238Y-99711904D01*
X133221428Y-99750000D01*
X133297619Y-99826190D01*
X133335714Y-99978571D01*
X133335714Y-100245238D01*
X133297619Y-100397619D01*
X133221428Y-100473809D01*
X133145238Y-100511904D01*
X132992857Y-100511904D01*
X134097619Y-100511904D02*
X133640476Y-100511904D01*
X133869047Y-100511904D02*
X133869047Y-99711904D01*
X133792857Y-99826190D01*
X133716666Y-99902380D01*
X133640476Y-99940476D01*
X140988095Y-96511904D02*
X140721428Y-96130952D01*
X140530952Y-96511904D02*
X140530952Y-95711904D01*
X140835714Y-95711904D01*
X140911904Y-95750000D01*
X140950000Y-95788095D01*
X140988095Y-95864285D01*
X140988095Y-95978571D01*
X140950000Y-96054761D01*
X140911904Y-96092857D01*
X140835714Y-96130952D01*
X140530952Y-96130952D01*
X141330952Y-96092857D02*
X141597619Y-96092857D01*
X141711904Y-96511904D02*
X141330952Y-96511904D01*
X141330952Y-95711904D01*
X141711904Y-95711904D01*
X142016666Y-96473809D02*
X142130952Y-96511904D01*
X142321428Y-96511904D01*
X142397619Y-96473809D01*
X142435714Y-96435714D01*
X142473809Y-96359523D01*
X142473809Y-96283333D01*
X142435714Y-96207142D01*
X142397619Y-96169047D01*
X142321428Y-96130952D01*
X142169047Y-96092857D01*
X142092857Y-96054761D01*
X142054761Y-96016666D01*
X142016666Y-95940476D01*
X142016666Y-95864285D01*
X142054761Y-95788095D01*
X142092857Y-95750000D01*
X142169047Y-95711904D01*
X142359523Y-95711904D01*
X142473809Y-95750000D01*
X142816666Y-96092857D02*
X143083333Y-96092857D01*
X143197619Y-96511904D02*
X142816666Y-96511904D01*
X142816666Y-95711904D01*
X143197619Y-95711904D01*
X143426190Y-95711904D02*
X143883333Y-95711904D01*
X143654761Y-96511904D02*
X143654761Y-95711904D01*
X153735714Y-88435714D02*
X153697619Y-88473809D01*
X153583333Y-88511904D01*
X153507142Y-88511904D01*
X153392857Y-88473809D01*
X153316666Y-88397619D01*
X153278571Y-88321428D01*
X153240476Y-88169047D01*
X153240476Y-88054761D01*
X153278571Y-87902380D01*
X153316666Y-87826190D01*
X153392857Y-87750000D01*
X153507142Y-87711904D01*
X153583333Y-87711904D01*
X153697619Y-87750000D01*
X153735714Y-87788095D01*
X154497619Y-88511904D02*
X154040476Y-88511904D01*
X154269047Y-88511904D02*
X154269047Y-87711904D01*
X154192857Y-87826190D01*
X154116666Y-87902380D01*
X154040476Y-87940476D01*
X154992857Y-87711904D02*
X155069047Y-87711904D01*
X155145238Y-87750000D01*
X155183333Y-87788095D01*
X155221428Y-87864285D01*
X155259523Y-88016666D01*
X155259523Y-88207142D01*
X155221428Y-88359523D01*
X155183333Y-88435714D01*
X155145238Y-88473809D01*
X155069047Y-88511904D01*
X154992857Y-88511904D01*
X154916666Y-88473809D01*
X154878571Y-88435714D01*
X154840476Y-88359523D01*
X154802380Y-88207142D01*
X154802380Y-88016666D01*
X154840476Y-87864285D01*
X154878571Y-87788095D01*
X154916666Y-87750000D01*
X154992857Y-87711904D01*
X160716666Y-92465714D02*
X160678571Y-92503809D01*
X160564285Y-92541904D01*
X160488095Y-92541904D01*
X160373809Y-92503809D01*
X160297619Y-92427619D01*
X160259523Y-92351428D01*
X160221428Y-92199047D01*
X160221428Y-92084761D01*
X160259523Y-91932380D01*
X160297619Y-91856190D01*
X160373809Y-91780000D01*
X160488095Y-91741904D01*
X160564285Y-91741904D01*
X160678571Y-91780000D01*
X160716666Y-91818095D01*
X161097619Y-92541904D02*
X161250000Y-92541904D01*
X161326190Y-92503809D01*
X161364285Y-92465714D01*
X161440476Y-92351428D01*
X161478571Y-92199047D01*
X161478571Y-91894285D01*
X161440476Y-91818095D01*
X161402380Y-91780000D01*
X161326190Y-91741904D01*
X161173809Y-91741904D01*
X161097619Y-91780000D01*
X161059523Y-91818095D01*
X161021428Y-91894285D01*
X161021428Y-92084761D01*
X161059523Y-92160952D01*
X161097619Y-92199047D01*
X161173809Y-92237142D01*
X161326190Y-92237142D01*
X161402380Y-92199047D01*
X161440476Y-92160952D01*
X161478571Y-92084761D01*
X162335714Y-94935714D02*
X162297619Y-94973809D01*
X162183333Y-95011904D01*
X162107142Y-95011904D01*
X161992857Y-94973809D01*
X161916666Y-94897619D01*
X161878571Y-94821428D01*
X161840476Y-94669047D01*
X161840476Y-94554761D01*
X161878571Y-94402380D01*
X161916666Y-94326190D01*
X161992857Y-94250000D01*
X162107142Y-94211904D01*
X162183333Y-94211904D01*
X162297619Y-94250000D01*
X162335714Y-94288095D01*
X163097619Y-95011904D02*
X162640476Y-95011904D01*
X162869047Y-95011904D02*
X162869047Y-94211904D01*
X162792857Y-94326190D01*
X162716666Y-94402380D01*
X162640476Y-94440476D01*
X163783333Y-94211904D02*
X163630952Y-94211904D01*
X163554761Y-94250000D01*
X163516666Y-94288095D01*
X163440476Y-94402380D01*
X163402380Y-94554761D01*
X163402380Y-94859523D01*
X163440476Y-94935714D01*
X163478571Y-94973809D01*
X163554761Y-95011904D01*
X163707142Y-95011904D01*
X163783333Y-94973809D01*
X163821428Y-94935714D01*
X163859523Y-94859523D01*
X163859523Y-94669047D01*
X163821428Y-94592857D01*
X163783333Y-94554761D01*
X163707142Y-94516666D01*
X163554761Y-94516666D01*
X163478571Y-94554761D01*
X163440476Y-94592857D01*
X163402380Y-94669047D01*
X170535714Y-85535714D02*
X170497619Y-85573809D01*
X170383333Y-85611904D01*
X170307142Y-85611904D01*
X170192857Y-85573809D01*
X170116666Y-85497619D01*
X170078571Y-85421428D01*
X170040476Y-85269047D01*
X170040476Y-85154761D01*
X170078571Y-85002380D01*
X170116666Y-84926190D01*
X170192857Y-84850000D01*
X170307142Y-84811904D01*
X170383333Y-84811904D01*
X170497619Y-84850000D01*
X170535714Y-84888095D01*
X171297619Y-85611904D02*
X170840476Y-85611904D01*
X171069047Y-85611904D02*
X171069047Y-84811904D01*
X170992857Y-84926190D01*
X170916666Y-85002380D01*
X170840476Y-85040476D01*
X172021428Y-84811904D02*
X171640476Y-84811904D01*
X171602380Y-85192857D01*
X171640476Y-85154761D01*
X171716666Y-85116666D01*
X171907142Y-85116666D01*
X171983333Y-85154761D01*
X172021428Y-85192857D01*
X172059523Y-85269047D01*
X172059523Y-85459523D01*
X172021428Y-85535714D01*
X171983333Y-85573809D01*
X171907142Y-85611904D01*
X171716666Y-85611904D01*
X171640476Y-85573809D01*
X171602380Y-85535714D01*
X170335714Y-87035714D02*
X170297619Y-87073809D01*
X170183333Y-87111904D01*
X170107142Y-87111904D01*
X169992857Y-87073809D01*
X169916666Y-86997619D01*
X169878571Y-86921428D01*
X169840476Y-86769047D01*
X169840476Y-86654761D01*
X169878571Y-86502380D01*
X169916666Y-86426190D01*
X169992857Y-86350000D01*
X170107142Y-86311904D01*
X170183333Y-86311904D01*
X170297619Y-86350000D01*
X170335714Y-86388095D01*
X171097619Y-87111904D02*
X170640476Y-87111904D01*
X170869047Y-87111904D02*
X170869047Y-86311904D01*
X170792857Y-86426190D01*
X170716666Y-86502380D01*
X170640476Y-86540476D01*
X171783333Y-86578571D02*
X171783333Y-87111904D01*
X171592857Y-86273809D02*
X171402380Y-86845238D01*
X171897619Y-86845238D01*
X172485714Y-92335714D02*
X172447619Y-92373809D01*
X172333333Y-92411904D01*
X172257142Y-92411904D01*
X172142857Y-92373809D01*
X172066666Y-92297619D01*
X172028571Y-92221428D01*
X171990476Y-92069047D01*
X171990476Y-91954761D01*
X172028571Y-91802380D01*
X172066666Y-91726190D01*
X172142857Y-91650000D01*
X172257142Y-91611904D01*
X172333333Y-91611904D01*
X172447619Y-91650000D01*
X172485714Y-91688095D01*
X173247619Y-92411904D02*
X172790476Y-92411904D01*
X173019047Y-92411904D02*
X173019047Y-91611904D01*
X172942857Y-91726190D01*
X172866666Y-91802380D01*
X172790476Y-91840476D01*
X173514285Y-91611904D02*
X174009523Y-91611904D01*
X173742857Y-91916666D01*
X173857142Y-91916666D01*
X173933333Y-91954761D01*
X173971428Y-91992857D01*
X174009523Y-92069047D01*
X174009523Y-92259523D01*
X173971428Y-92335714D01*
X173933333Y-92373809D01*
X173857142Y-92411904D01*
X173628571Y-92411904D01*
X173552380Y-92373809D01*
X173514285Y-92335714D01*
X172485714Y-93435714D02*
X172447619Y-93473809D01*
X172333333Y-93511904D01*
X172257142Y-93511904D01*
X172142857Y-93473809D01*
X172066666Y-93397619D01*
X172028571Y-93321428D01*
X171990476Y-93169047D01*
X171990476Y-93054761D01*
X172028571Y-92902380D01*
X172066666Y-92826190D01*
X172142857Y-92750000D01*
X172257142Y-92711904D01*
X172333333Y-92711904D01*
X172447619Y-92750000D01*
X172485714Y-92788095D01*
X173247619Y-93511904D02*
X172790476Y-93511904D01*
X173019047Y-93511904D02*
X173019047Y-92711904D01*
X172942857Y-92826190D01*
X172866666Y-92902380D01*
X172790476Y-92940476D01*
X173552380Y-92788095D02*
X173590476Y-92750000D01*
X173666666Y-92711904D01*
X173857142Y-92711904D01*
X173933333Y-92750000D01*
X173971428Y-92788095D01*
X174009523Y-92864285D01*
X174009523Y-92940476D01*
X173971428Y-93054761D01*
X173514285Y-93511904D01*
X174009523Y-93511904D01*
X163735714Y-97735714D02*
X163697619Y-97773809D01*
X163583333Y-97811904D01*
X163507142Y-97811904D01*
X163392857Y-97773809D01*
X163316666Y-97697619D01*
X163278571Y-97621428D01*
X163240476Y-97469047D01*
X163240476Y-97354761D01*
X163278571Y-97202380D01*
X163316666Y-97126190D01*
X163392857Y-97050000D01*
X163507142Y-97011904D01*
X163583333Y-97011904D01*
X163697619Y-97050000D01*
X163735714Y-97088095D01*
X164497619Y-97811904D02*
X164040476Y-97811904D01*
X164269047Y-97811904D02*
X164269047Y-97011904D01*
X164192857Y-97126190D01*
X164116666Y-97202380D01*
X164040476Y-97240476D01*
X165259523Y-97811904D02*
X164802380Y-97811904D01*
X165030952Y-97811904D02*
X165030952Y-97011904D01*
X164954761Y-97126190D01*
X164878571Y-97202380D01*
X164802380Y-97240476D01*
X143640476Y-90811904D02*
X143640476Y-91459523D01*
X143678571Y-91535714D01*
X143716666Y-91573809D01*
X143792857Y-91611904D01*
X143945238Y-91611904D01*
X144021428Y-91573809D01*
X144059523Y-91535714D01*
X144097619Y-91459523D01*
X144097619Y-90811904D01*
X144402380Y-90811904D02*
X144897619Y-90811904D01*
X144630952Y-91116666D01*
X144745238Y-91116666D01*
X144821428Y-91154761D01*
X144859523Y-91192857D01*
X144897619Y-91269047D01*
X144897619Y-91459523D01*
X144859523Y-91535714D01*
X144821428Y-91573809D01*
X144745238Y-91611904D01*
X144516666Y-91611904D01*
X144440476Y-91573809D01*
X144402380Y-91535714D01*
X147459523Y-90211904D02*
X147459523Y-89411904D01*
X147650000Y-89411904D01*
X147764285Y-89450000D01*
X147840476Y-89526190D01*
X147878571Y-89602380D01*
X147916666Y-89754761D01*
X147916666Y-89869047D01*
X147878571Y-90021428D01*
X147840476Y-90097619D01*
X147764285Y-90173809D01*
X147650000Y-90211904D01*
X147459523Y-90211904D01*
X148678571Y-90211904D02*
X148221428Y-90211904D01*
X148450000Y-90211904D02*
X148450000Y-89411904D01*
X148373809Y-89526190D01*
X148297619Y-89602380D01*
X148221428Y-89640476D01*
X146435714Y-100211904D02*
X146169047Y-99830952D01*
X145978571Y-100211904D02*
X145978571Y-99411904D01*
X146283333Y-99411904D01*
X146359523Y-99450000D01*
X146397619Y-99488095D01*
X146435714Y-99564285D01*
X146435714Y-99678571D01*
X146397619Y-99754761D01*
X146359523Y-99792857D01*
X146283333Y-99830952D01*
X145978571Y-99830952D01*
X147197619Y-100211904D02*
X146740476Y-100211904D01*
X146969047Y-100211904D02*
X146969047Y-99411904D01*
X146892857Y-99526190D01*
X146816666Y-99602380D01*
X146740476Y-99640476D01*
X147502380Y-99488095D02*
X147540476Y-99450000D01*
X147616666Y-99411904D01*
X147807142Y-99411904D01*
X147883333Y-99450000D01*
X147921428Y-99488095D01*
X147959523Y-99564285D01*
X147959523Y-99640476D01*
X147921428Y-99754761D01*
X147464285Y-100211904D01*
X147959523Y-100211904D01*
X146435714Y-98711904D02*
X146169047Y-98330952D01*
X145978571Y-98711904D02*
X145978571Y-97911904D01*
X146283333Y-97911904D01*
X146359523Y-97950000D01*
X146397619Y-97988095D01*
X146435714Y-98064285D01*
X146435714Y-98178571D01*
X146397619Y-98254761D01*
X146359523Y-98292857D01*
X146283333Y-98330952D01*
X145978571Y-98330952D01*
X147197619Y-98711904D02*
X146740476Y-98711904D01*
X146969047Y-98711904D02*
X146969047Y-97911904D01*
X146892857Y-98026190D01*
X146816666Y-98102380D01*
X146740476Y-98140476D01*
X147959523Y-98711904D02*
X147502380Y-98711904D01*
X147730952Y-98711904D02*
X147730952Y-97911904D01*
X147654761Y-98026190D01*
X147578571Y-98102380D01*
X147502380Y-98140476D01*
X151635714Y-99611904D02*
X151369047Y-99230952D01*
X151178571Y-99611904D02*
X151178571Y-98811904D01*
X151483333Y-98811904D01*
X151559523Y-98850000D01*
X151597619Y-98888095D01*
X151635714Y-98964285D01*
X151635714Y-99078571D01*
X151597619Y-99154761D01*
X151559523Y-99192857D01*
X151483333Y-99230952D01*
X151178571Y-99230952D01*
X152397619Y-99611904D02*
X151940476Y-99611904D01*
X152169047Y-99611904D02*
X152169047Y-98811904D01*
X152092857Y-98926190D01*
X152016666Y-99002380D01*
X151940476Y-99040476D01*
X152892857Y-98811904D02*
X152969047Y-98811904D01*
X153045238Y-98850000D01*
X153083333Y-98888095D01*
X153121428Y-98964285D01*
X153159523Y-99116666D01*
X153159523Y-99307142D01*
X153121428Y-99459523D01*
X153083333Y-99535714D01*
X153045238Y-99573809D01*
X152969047Y-99611904D01*
X152892857Y-99611904D01*
X152816666Y-99573809D01*
X152778571Y-99535714D01*
X152740476Y-99459523D01*
X152702380Y-99307142D01*
X152702380Y-99116666D01*
X152740476Y-98964285D01*
X152778571Y-98888095D01*
X152816666Y-98850000D01*
X152892857Y-98811904D01*
X163140476Y-84011904D02*
X163140476Y-84659523D01*
X163178571Y-84735714D01*
X163216666Y-84773809D01*
X163292857Y-84811904D01*
X163445238Y-84811904D01*
X163521428Y-84773809D01*
X163559523Y-84735714D01*
X163597619Y-84659523D01*
X163597619Y-84011904D01*
X164359523Y-84011904D02*
X163978571Y-84011904D01*
X163940476Y-84392857D01*
X163978571Y-84354761D01*
X164054761Y-84316666D01*
X164245238Y-84316666D01*
X164321428Y-84354761D01*
X164359523Y-84392857D01*
X164397619Y-84469047D01*
X164397619Y-84659523D01*
X164359523Y-84735714D01*
X164321428Y-84773809D01*
X164245238Y-84811904D01*
X164054761Y-84811904D01*
X163978571Y-84773809D01*
X163940476Y-84735714D01*
X131416666Y-99611904D02*
X131150000Y-99230952D01*
X130959523Y-99611904D02*
X130959523Y-98811904D01*
X131264285Y-98811904D01*
X131340476Y-98850000D01*
X131378571Y-98888095D01*
X131416666Y-98964285D01*
X131416666Y-99078571D01*
X131378571Y-99154761D01*
X131340476Y-99192857D01*
X131264285Y-99230952D01*
X130959523Y-99230952D01*
X131797619Y-99611904D02*
X131950000Y-99611904D01*
X132026190Y-99573809D01*
X132064285Y-99535714D01*
X132140476Y-99421428D01*
X132178571Y-99269047D01*
X132178571Y-98964285D01*
X132140476Y-98888095D01*
X132102380Y-98850000D01*
X132026190Y-98811904D01*
X131873809Y-98811904D01*
X131797619Y-98850000D01*
X131759523Y-98888095D01*
X131721428Y-98964285D01*
X131721428Y-99154761D01*
X131759523Y-99230952D01*
X131797619Y-99269047D01*
X131873809Y-99307142D01*
X132026190Y-99307142D01*
X132102380Y-99269047D01*
X132140476Y-99230952D01*
X132178571Y-99154761D01*
X148516666Y-93211904D02*
X148250000Y-92830952D01*
X148059523Y-93211904D02*
X148059523Y-92411904D01*
X148364285Y-92411904D01*
X148440476Y-92450000D01*
X148478571Y-92488095D01*
X148516666Y-92564285D01*
X148516666Y-92678571D01*
X148478571Y-92754761D01*
X148440476Y-92792857D01*
X148364285Y-92830952D01*
X148059523Y-92830952D01*
X148783333Y-92411904D02*
X149278571Y-92411904D01*
X149011904Y-92716666D01*
X149126190Y-92716666D01*
X149202380Y-92754761D01*
X149240476Y-92792857D01*
X149278571Y-92869047D01*
X149278571Y-93059523D01*
X149240476Y-93135714D01*
X149202380Y-93173809D01*
X149126190Y-93211904D01*
X148897619Y-93211904D01*
X148821428Y-93173809D01*
X148783333Y-93135714D01*
X148516666Y-95111904D02*
X148250000Y-94730952D01*
X148059523Y-95111904D02*
X148059523Y-94311904D01*
X148364285Y-94311904D01*
X148440476Y-94350000D01*
X148478571Y-94388095D01*
X148516666Y-94464285D01*
X148516666Y-94578571D01*
X148478571Y-94654761D01*
X148440476Y-94692857D01*
X148364285Y-94730952D01*
X148059523Y-94730952D01*
X148821428Y-94388095D02*
X148859523Y-94350000D01*
X148935714Y-94311904D01*
X149126190Y-94311904D01*
X149202380Y-94350000D01*
X149240476Y-94388095D01*
X149278571Y-94464285D01*
X149278571Y-94540476D01*
X149240476Y-94654761D01*
X148783333Y-95111904D01*
X149278571Y-95111904D01*
X158640476Y-88311904D02*
X158640476Y-88959523D01*
X158678571Y-89035714D01*
X158716666Y-89073809D01*
X158792857Y-89111904D01*
X158945238Y-89111904D01*
X159021428Y-89073809D01*
X159059523Y-89035714D01*
X159097619Y-88959523D01*
X159097619Y-88311904D01*
X159821428Y-88578571D02*
X159821428Y-89111904D01*
X159630952Y-88273809D02*
X159440476Y-88845238D01*
X159935714Y-88845238D01*
X127159523Y-99802380D02*
X127159523Y-98802380D01*
X127397619Y-98802380D01*
X127540476Y-98850000D01*
X127635714Y-98945238D01*
X127683333Y-99040476D01*
X127730952Y-99230952D01*
X127730952Y-99373809D01*
X127683333Y-99564285D01*
X127635714Y-99659523D01*
X127540476Y-99754761D01*
X127397619Y-99802380D01*
X127159523Y-99802380D01*
X128111904Y-99516666D02*
X128588095Y-99516666D01*
X128016666Y-99802380D02*
X128350000Y-98802380D01*
X128683333Y-99802380D01*
X129016666Y-99802380D02*
X129016666Y-98802380D01*
X129397619Y-98802380D01*
X129492857Y-98850000D01*
X129540476Y-98897619D01*
X129588095Y-98992857D01*
X129588095Y-99135714D01*
X129540476Y-99230952D01*
X129492857Y-99278571D01*
X129397619Y-99326190D01*
X129016666Y-99326190D01*
X127864285Y-86377142D02*
X127816666Y-86424761D01*
X127673809Y-86472380D01*
X127578571Y-86472380D01*
X127435714Y-86424761D01*
X127340476Y-86329523D01*
X127292857Y-86234285D01*
X127245238Y-86043809D01*
X127245238Y-85900952D01*
X127292857Y-85710476D01*
X127340476Y-85615238D01*
X127435714Y-85520000D01*
X127578571Y-85472380D01*
X127673809Y-85472380D01*
X127816666Y-85520000D01*
X127864285Y-85567619D01*
X128483333Y-85472380D02*
X128673809Y-85472380D01*
X128769047Y-85520000D01*
X128864285Y-85615238D01*
X128911904Y-85805714D01*
X128911904Y-86139047D01*
X128864285Y-86329523D01*
X128769047Y-86424761D01*
X128673809Y-86472380D01*
X128483333Y-86472380D01*
X128388095Y-86424761D01*
X128292857Y-86329523D01*
X128245238Y-86139047D01*
X128245238Y-85805714D01*
X128292857Y-85615238D01*
X128388095Y-85520000D01*
X128483333Y-85472380D01*
X129340476Y-86472380D02*
X129340476Y-85472380D01*
X129673809Y-86186666D01*
X130007142Y-85472380D01*
X130007142Y-86472380D01*
X136988095Y-96602380D02*
X136988095Y-95602380D01*
X137226190Y-95602380D01*
X137369047Y-95650000D01*
X137464285Y-95745238D01*
X137511904Y-95840476D01*
X137559523Y-96030952D01*
X137559523Y-96173809D01*
X137511904Y-96364285D01*
X137464285Y-96459523D01*
X137369047Y-96554761D01*
X137226190Y-96602380D01*
X136988095Y-96602380D01*
X138321428Y-96078571D02*
X138464285Y-96126190D01*
X138511904Y-96173809D01*
X138559523Y-96269047D01*
X138559523Y-96411904D01*
X138511904Y-96507142D01*
X138464285Y-96554761D01*
X138369047Y-96602380D01*
X137988095Y-96602380D01*
X137988095Y-95602380D01*
X138321428Y-95602380D01*
X138416666Y-95650000D01*
X138464285Y-95697619D01*
X138511904Y-95792857D01*
X138511904Y-95888095D01*
X138464285Y-95983333D01*
X138416666Y-96030952D01*
X138321428Y-96078571D01*
X137988095Y-96078571D01*
X139511904Y-95650000D02*
X139416666Y-95602380D01*
X139273809Y-95602380D01*
X139130952Y-95650000D01*
X139035714Y-95745238D01*
X138988095Y-95840476D01*
X138940476Y-96030952D01*
X138940476Y-96173809D01*
X138988095Y-96364285D01*
X139035714Y-96459523D01*
X139130952Y-96554761D01*
X139273809Y-96602380D01*
X139369047Y-96602380D01*
X139511904Y-96554761D01*
X139559523Y-96507142D01*
X139559523Y-96173809D01*
X139369047Y-96173809D01*
X166894047Y-99768452D02*
X166894047Y-100149404D01*
X166627380Y-99349404D02*
X166894047Y-99768452D01*
X167160714Y-99349404D01*
X167351190Y-99349404D02*
X167846428Y-99349404D01*
X167579761Y-99654166D01*
X167694047Y-99654166D01*
X167770238Y-99692261D01*
X167808333Y-99730357D01*
X167846428Y-99806547D01*
X167846428Y-99997023D01*
X167808333Y-100073214D01*
X167770238Y-100111309D01*
X167694047Y-100149404D01*
X167465476Y-100149404D01*
X167389285Y-100111309D01*
X167351190Y-100073214D01*
X159869047Y-95930952D02*
X159869047Y-96311904D01*
X159602380Y-95511904D02*
X159869047Y-95930952D01*
X160135714Y-95511904D01*
X160364285Y-95588095D02*
X160402380Y-95550000D01*
X160478571Y-95511904D01*
X160669047Y-95511904D01*
X160745238Y-95550000D01*
X160783333Y-95588095D01*
X160821428Y-95664285D01*
X160821428Y-95740476D01*
X160783333Y-95854761D01*
X160326190Y-96311904D01*
X160821428Y-96311904D01*
X159869047Y-87530952D02*
X159869047Y-87911904D01*
X159602380Y-87111904D02*
X159869047Y-87530952D01*
X160135714Y-87111904D01*
X160821428Y-87911904D02*
X160364285Y-87911904D01*
X160592857Y-87911904D02*
X160592857Y-87111904D01*
X160516666Y-87226190D01*
X160440476Y-87302380D01*
X160364285Y-87340476D01*
X132440476Y-93911904D02*
X132440476Y-94559523D01*
X132478571Y-94635714D01*
X132516666Y-94673809D01*
X132592857Y-94711904D01*
X132745238Y-94711904D01*
X132821428Y-94673809D01*
X132859523Y-94635714D01*
X132897619Y-94559523D01*
X132897619Y-93911904D01*
X133240476Y-93988095D02*
X133278571Y-93950000D01*
X133354761Y-93911904D01*
X133545238Y-93911904D01*
X133621428Y-93950000D01*
X133659523Y-93988095D01*
X133697619Y-94064285D01*
X133697619Y-94140476D01*
X133659523Y-94254761D01*
X133202380Y-94711904D01*
X133697619Y-94711904D01*
X160865476Y-98699404D02*
X160865476Y-99347023D01*
X160903571Y-99423214D01*
X160941666Y-99461309D01*
X161017857Y-99499404D01*
X161170238Y-99499404D01*
X161246428Y-99461309D01*
X161284523Y-99423214D01*
X161322619Y-99347023D01*
X161322619Y-98699404D01*
X162122619Y-99499404D02*
X161665476Y-99499404D01*
X161894047Y-99499404D02*
X161894047Y-98699404D01*
X161817857Y-98813690D01*
X161741666Y-98889880D01*
X161665476Y-98927976D01*
X169066666Y-95711904D02*
X168685714Y-95711904D01*
X168685714Y-94911904D01*
X169752380Y-95711904D02*
X169295238Y-95711904D01*
X169523809Y-95711904D02*
X169523809Y-94911904D01*
X169447619Y-95026190D01*
X169371428Y-95102380D01*
X169295238Y-95140476D01*
X143807142Y-89764285D02*
X143854761Y-89811904D01*
X143902380Y-89954761D01*
X143902380Y-90050000D01*
X143854761Y-90192857D01*
X143759523Y-90288095D01*
X143664285Y-90335714D01*
X143473809Y-90383333D01*
X143330952Y-90383333D01*
X143140476Y-90335714D01*
X143045238Y-90288095D01*
X142950000Y-90192857D01*
X142902380Y-90050000D01*
X142902380Y-89954761D01*
X142950000Y-89811904D01*
X142997619Y-89764285D01*
X143902380Y-89335714D02*
X142902380Y-89335714D01*
X143378571Y-89335714D02*
X143378571Y-88764285D01*
X143902380Y-88764285D02*
X142902380Y-88764285D01*
X142950000Y-87764285D02*
X142902380Y-87859523D01*
X142902380Y-88002380D01*
X142950000Y-88145238D01*
X143045238Y-88240476D01*
X143140476Y-88288095D01*
X143330952Y-88335714D01*
X143473809Y-88335714D01*
X143664285Y-88288095D01*
X143759523Y-88240476D01*
X143854761Y-88145238D01*
X143902380Y-88002380D01*
X143902380Y-87907142D01*
X143854761Y-87764285D01*
X143807142Y-87716666D01*
X143473809Y-87716666D01*
X143473809Y-87907142D01*
X169066666Y-96723214D02*
X169028571Y-96761309D01*
X168914285Y-96799404D01*
X168838095Y-96799404D01*
X168723809Y-96761309D01*
X168647619Y-96685119D01*
X168609523Y-96608928D01*
X168571428Y-96456547D01*
X168571428Y-96342261D01*
X168609523Y-96189880D01*
X168647619Y-96113690D01*
X168723809Y-96037500D01*
X168838095Y-95999404D01*
X168914285Y-95999404D01*
X169028571Y-96037500D01*
X169066666Y-96075595D01*
X169523809Y-96342261D02*
X169447619Y-96304166D01*
X169409523Y-96266071D01*
X169371428Y-96189880D01*
X169371428Y-96151785D01*
X169409523Y-96075595D01*
X169447619Y-96037500D01*
X169523809Y-95999404D01*
X169676190Y-95999404D01*
X169752380Y-96037500D01*
X169790476Y-96075595D01*
X169828571Y-96151785D01*
X169828571Y-96189880D01*
X169790476Y-96266071D01*
X169752380Y-96304166D01*
X169676190Y-96342261D01*
X169523809Y-96342261D01*
X169447619Y-96380357D01*
X169409523Y-96418452D01*
X169371428Y-96494642D01*
X169371428Y-96647023D01*
X169409523Y-96723214D01*
X169447619Y-96761309D01*
X169523809Y-96799404D01*
X169676190Y-96799404D01*
X169752380Y-96761309D01*
X169790476Y-96723214D01*
X169828571Y-96647023D01*
X169828571Y-96494642D01*
X169790476Y-96418452D01*
X169752380Y-96380357D01*
X169676190Y-96342261D01*
X169066666Y-94535714D02*
X169028571Y-94573809D01*
X168914285Y-94611904D01*
X168838095Y-94611904D01*
X168723809Y-94573809D01*
X168647619Y-94497619D01*
X168609523Y-94421428D01*
X168571428Y-94269047D01*
X168571428Y-94154761D01*
X168609523Y-94002380D01*
X168647619Y-93926190D01*
X168723809Y-93850000D01*
X168838095Y-93811904D01*
X168914285Y-93811904D01*
X169028571Y-93850000D01*
X169066666Y-93888095D01*
X169333333Y-93811904D02*
X169866666Y-93811904D01*
X169523809Y-94611904D01*
X164416666Y-96735714D02*
X164378571Y-96773809D01*
X164264285Y-96811904D01*
X164188095Y-96811904D01*
X164073809Y-96773809D01*
X163997619Y-96697619D01*
X163959523Y-96621428D01*
X163921428Y-96469047D01*
X163921428Y-96354761D01*
X163959523Y-96202380D01*
X163997619Y-96126190D01*
X164073809Y-96050000D01*
X164188095Y-96011904D01*
X164264285Y-96011904D01*
X164378571Y-96050000D01*
X164416666Y-96088095D01*
X165102380Y-96011904D02*
X164950000Y-96011904D01*
X164873809Y-96050000D01*
X164835714Y-96088095D01*
X164759523Y-96202380D01*
X164721428Y-96354761D01*
X164721428Y-96659523D01*
X164759523Y-96735714D01*
X164797619Y-96773809D01*
X164873809Y-96811904D01*
X165026190Y-96811904D01*
X165102380Y-96773809D01*
X165140476Y-96735714D01*
X165178571Y-96659523D01*
X165178571Y-96469047D01*
X165140476Y-96392857D01*
X165102380Y-96354761D01*
X165026190Y-96316666D01*
X164873809Y-96316666D01*
X164797619Y-96354761D01*
X164759523Y-96392857D01*
X164721428Y-96469047D01*
X148516666Y-91635714D02*
X148478571Y-91673809D01*
X148364285Y-91711904D01*
X148288095Y-91711904D01*
X148173809Y-91673809D01*
X148097619Y-91597619D01*
X148059523Y-91521428D01*
X148021428Y-91369047D01*
X148021428Y-91254761D01*
X148059523Y-91102380D01*
X148097619Y-91026190D01*
X148173809Y-90950000D01*
X148288095Y-90911904D01*
X148364285Y-90911904D01*
X148478571Y-90950000D01*
X148516666Y-90988095D01*
X149202380Y-91178571D02*
X149202380Y-91711904D01*
X149011904Y-90873809D02*
X148821428Y-91445238D01*
X149316666Y-91445238D01*
X148516666Y-96635714D02*
X148478571Y-96673809D01*
X148364285Y-96711904D01*
X148288095Y-96711904D01*
X148173809Y-96673809D01*
X148097619Y-96597619D01*
X148059523Y-96521428D01*
X148021428Y-96369047D01*
X148021428Y-96254761D01*
X148059523Y-96102380D01*
X148097619Y-96026190D01*
X148173809Y-95950000D01*
X148288095Y-95911904D01*
X148364285Y-95911904D01*
X148478571Y-95950000D01*
X148516666Y-95988095D01*
X148783333Y-95911904D02*
X149278571Y-95911904D01*
X149011904Y-96216666D01*
X149126190Y-96216666D01*
X149202380Y-96254761D01*
X149240476Y-96292857D01*
X149278571Y-96369047D01*
X149278571Y-96559523D01*
X149240476Y-96635714D01*
X149202380Y-96673809D01*
X149126190Y-96711904D01*
X148897619Y-96711904D01*
X148821428Y-96673809D01*
X148783333Y-96635714D01*
M02*
