G04 #@! TF.GenerationSoftware,KiCad,Pcbnew,5.1.5+dfsg1-2build2*
G04 #@! TF.CreationDate,2020-07-13T22:27:38-05:00*
G04 #@! TF.ProjectId,kw41z-feather,6b773431-7a2d-4666-9561-746865722e6b,rev?*
G04 #@! TF.SameCoordinates,Original*
G04 #@! TF.FileFunction,Soldermask,Bot*
G04 #@! TF.FilePolarity,Negative*
%FSLAX46Y46*%
G04 Gerber Fmt 4.6, Leading zero omitted, Abs format (unit mm)*
G04 Created by KiCad (PCBNEW 5.1.5+dfsg1-2build2) date 2020-07-13 22:27:38*
%MOMM*%
%LPD*%
G04 APERTURE LIST*
%ADD10C,0.100000*%
G04 APERTURE END LIST*
D10*
G36*
X143623512Y-101973927D02*
G01*
X143772812Y-102003624D01*
X143936784Y-102071544D01*
X144084354Y-102170147D01*
X144209853Y-102295646D01*
X144308456Y-102443216D01*
X144376376Y-102607188D01*
X144411000Y-102781259D01*
X144411000Y-102958741D01*
X144376376Y-103132812D01*
X144308456Y-103296784D01*
X144209853Y-103444354D01*
X144084354Y-103569853D01*
X143936784Y-103668456D01*
X143772812Y-103736376D01*
X143623512Y-103766073D01*
X143598742Y-103771000D01*
X143421258Y-103771000D01*
X143396488Y-103766073D01*
X143247188Y-103736376D01*
X143083216Y-103668456D01*
X142935646Y-103569853D01*
X142810147Y-103444354D01*
X142711544Y-103296784D01*
X142643624Y-103132812D01*
X142609000Y-102958741D01*
X142609000Y-102781259D01*
X142643624Y-102607188D01*
X142711544Y-102443216D01*
X142810147Y-102295646D01*
X142935646Y-102170147D01*
X143083216Y-102071544D01*
X143247188Y-102003624D01*
X143396488Y-101973927D01*
X143421258Y-101969000D01*
X143598742Y-101969000D01*
X143623512Y-101973927D01*
G37*
G36*
X151243512Y-101973927D02*
G01*
X151392812Y-102003624D01*
X151556784Y-102071544D01*
X151704354Y-102170147D01*
X151829853Y-102295646D01*
X151928456Y-102443216D01*
X151996376Y-102607188D01*
X152031000Y-102781259D01*
X152031000Y-102958741D01*
X151996376Y-103132812D01*
X151928456Y-103296784D01*
X151829853Y-103444354D01*
X151704354Y-103569853D01*
X151556784Y-103668456D01*
X151392812Y-103736376D01*
X151243512Y-103766073D01*
X151218742Y-103771000D01*
X151041258Y-103771000D01*
X151016488Y-103766073D01*
X150867188Y-103736376D01*
X150703216Y-103668456D01*
X150555646Y-103569853D01*
X150430147Y-103444354D01*
X150331544Y-103296784D01*
X150263624Y-103132812D01*
X150229000Y-102958741D01*
X150229000Y-102781259D01*
X150263624Y-102607188D01*
X150331544Y-102443216D01*
X150430147Y-102295646D01*
X150555646Y-102170147D01*
X150703216Y-102071544D01*
X150867188Y-102003624D01*
X151016488Y-101973927D01*
X151041258Y-101969000D01*
X151218742Y-101969000D01*
X151243512Y-101973927D01*
G37*
G36*
X134251000Y-103771000D02*
G01*
X132449000Y-103771000D01*
X132449000Y-101969000D01*
X134251000Y-101969000D01*
X134251000Y-103771000D01*
G37*
G36*
X136003512Y-101973927D02*
G01*
X136152812Y-102003624D01*
X136316784Y-102071544D01*
X136464354Y-102170147D01*
X136589853Y-102295646D01*
X136688456Y-102443216D01*
X136756376Y-102607188D01*
X136791000Y-102781259D01*
X136791000Y-102958741D01*
X136756376Y-103132812D01*
X136688456Y-103296784D01*
X136589853Y-103444354D01*
X136464354Y-103569853D01*
X136316784Y-103668456D01*
X136152812Y-103736376D01*
X136003512Y-103766073D01*
X135978742Y-103771000D01*
X135801258Y-103771000D01*
X135776488Y-103766073D01*
X135627188Y-103736376D01*
X135463216Y-103668456D01*
X135315646Y-103569853D01*
X135190147Y-103444354D01*
X135091544Y-103296784D01*
X135023624Y-103132812D01*
X134989000Y-102958741D01*
X134989000Y-102781259D01*
X135023624Y-102607188D01*
X135091544Y-102443216D01*
X135190147Y-102295646D01*
X135315646Y-102170147D01*
X135463216Y-102071544D01*
X135627188Y-102003624D01*
X135776488Y-101973927D01*
X135801258Y-101969000D01*
X135978742Y-101969000D01*
X136003512Y-101973927D01*
G37*
G36*
X138543512Y-101973927D02*
G01*
X138692812Y-102003624D01*
X138856784Y-102071544D01*
X139004354Y-102170147D01*
X139129853Y-102295646D01*
X139228456Y-102443216D01*
X139296376Y-102607188D01*
X139331000Y-102781259D01*
X139331000Y-102958741D01*
X139296376Y-103132812D01*
X139228456Y-103296784D01*
X139129853Y-103444354D01*
X139004354Y-103569853D01*
X138856784Y-103668456D01*
X138692812Y-103736376D01*
X138543512Y-103766073D01*
X138518742Y-103771000D01*
X138341258Y-103771000D01*
X138316488Y-103766073D01*
X138167188Y-103736376D01*
X138003216Y-103668456D01*
X137855646Y-103569853D01*
X137730147Y-103444354D01*
X137631544Y-103296784D01*
X137563624Y-103132812D01*
X137529000Y-102958741D01*
X137529000Y-102781259D01*
X137563624Y-102607188D01*
X137631544Y-102443216D01*
X137730147Y-102295646D01*
X137855646Y-102170147D01*
X138003216Y-102071544D01*
X138167188Y-102003624D01*
X138316488Y-101973927D01*
X138341258Y-101969000D01*
X138518742Y-101969000D01*
X138543512Y-101973927D01*
G37*
G36*
X141083512Y-101973927D02*
G01*
X141232812Y-102003624D01*
X141396784Y-102071544D01*
X141544354Y-102170147D01*
X141669853Y-102295646D01*
X141768456Y-102443216D01*
X141836376Y-102607188D01*
X141871000Y-102781259D01*
X141871000Y-102958741D01*
X141836376Y-103132812D01*
X141768456Y-103296784D01*
X141669853Y-103444354D01*
X141544354Y-103569853D01*
X141396784Y-103668456D01*
X141232812Y-103736376D01*
X141083512Y-103766073D01*
X141058742Y-103771000D01*
X140881258Y-103771000D01*
X140856488Y-103766073D01*
X140707188Y-103736376D01*
X140543216Y-103668456D01*
X140395646Y-103569853D01*
X140270147Y-103444354D01*
X140171544Y-103296784D01*
X140103624Y-103132812D01*
X140069000Y-102958741D01*
X140069000Y-102781259D01*
X140103624Y-102607188D01*
X140171544Y-102443216D01*
X140270147Y-102295646D01*
X140395646Y-102170147D01*
X140543216Y-102071544D01*
X140707188Y-102003624D01*
X140856488Y-101973927D01*
X140881258Y-101969000D01*
X141058742Y-101969000D01*
X141083512Y-101973927D01*
G37*
G36*
X146163512Y-101973927D02*
G01*
X146312812Y-102003624D01*
X146476784Y-102071544D01*
X146624354Y-102170147D01*
X146749853Y-102295646D01*
X146848456Y-102443216D01*
X146916376Y-102607188D01*
X146951000Y-102781259D01*
X146951000Y-102958741D01*
X146916376Y-103132812D01*
X146848456Y-103296784D01*
X146749853Y-103444354D01*
X146624354Y-103569853D01*
X146476784Y-103668456D01*
X146312812Y-103736376D01*
X146163512Y-103766073D01*
X146138742Y-103771000D01*
X145961258Y-103771000D01*
X145936488Y-103766073D01*
X145787188Y-103736376D01*
X145623216Y-103668456D01*
X145475646Y-103569853D01*
X145350147Y-103444354D01*
X145251544Y-103296784D01*
X145183624Y-103132812D01*
X145149000Y-102958741D01*
X145149000Y-102781259D01*
X145183624Y-102607188D01*
X145251544Y-102443216D01*
X145350147Y-102295646D01*
X145475646Y-102170147D01*
X145623216Y-102071544D01*
X145787188Y-102003624D01*
X145936488Y-101973927D01*
X145961258Y-101969000D01*
X146138742Y-101969000D01*
X146163512Y-101973927D01*
G37*
G36*
X148703512Y-101973927D02*
G01*
X148852812Y-102003624D01*
X149016784Y-102071544D01*
X149164354Y-102170147D01*
X149289853Y-102295646D01*
X149388456Y-102443216D01*
X149456376Y-102607188D01*
X149491000Y-102781259D01*
X149491000Y-102958741D01*
X149456376Y-103132812D01*
X149388456Y-103296784D01*
X149289853Y-103444354D01*
X149164354Y-103569853D01*
X149016784Y-103668456D01*
X148852812Y-103736376D01*
X148703512Y-103766073D01*
X148678742Y-103771000D01*
X148501258Y-103771000D01*
X148476488Y-103766073D01*
X148327188Y-103736376D01*
X148163216Y-103668456D01*
X148015646Y-103569853D01*
X147890147Y-103444354D01*
X147791544Y-103296784D01*
X147723624Y-103132812D01*
X147689000Y-102958741D01*
X147689000Y-102781259D01*
X147723624Y-102607188D01*
X147791544Y-102443216D01*
X147890147Y-102295646D01*
X148015646Y-102170147D01*
X148163216Y-102071544D01*
X148327188Y-102003624D01*
X148476488Y-101973927D01*
X148501258Y-101969000D01*
X148678742Y-101969000D01*
X148703512Y-101973927D01*
G37*
G36*
X153783512Y-101973927D02*
G01*
X153932812Y-102003624D01*
X154096784Y-102071544D01*
X154244354Y-102170147D01*
X154369853Y-102295646D01*
X154468456Y-102443216D01*
X154536376Y-102607188D01*
X154571000Y-102781259D01*
X154571000Y-102958741D01*
X154536376Y-103132812D01*
X154468456Y-103296784D01*
X154369853Y-103444354D01*
X154244354Y-103569853D01*
X154096784Y-103668456D01*
X153932812Y-103736376D01*
X153783512Y-103766073D01*
X153758742Y-103771000D01*
X153581258Y-103771000D01*
X153556488Y-103766073D01*
X153407188Y-103736376D01*
X153243216Y-103668456D01*
X153095646Y-103569853D01*
X152970147Y-103444354D01*
X152871544Y-103296784D01*
X152803624Y-103132812D01*
X152769000Y-102958741D01*
X152769000Y-102781259D01*
X152803624Y-102607188D01*
X152871544Y-102443216D01*
X152970147Y-102295646D01*
X153095646Y-102170147D01*
X153243216Y-102071544D01*
X153407188Y-102003624D01*
X153556488Y-101973927D01*
X153581258Y-101969000D01*
X153758742Y-101969000D01*
X153783512Y-101973927D01*
G37*
G36*
X156323512Y-101973927D02*
G01*
X156472812Y-102003624D01*
X156636784Y-102071544D01*
X156784354Y-102170147D01*
X156909853Y-102295646D01*
X157008456Y-102443216D01*
X157076376Y-102607188D01*
X157111000Y-102781259D01*
X157111000Y-102958741D01*
X157076376Y-103132812D01*
X157008456Y-103296784D01*
X156909853Y-103444354D01*
X156784354Y-103569853D01*
X156636784Y-103668456D01*
X156472812Y-103736376D01*
X156323512Y-103766073D01*
X156298742Y-103771000D01*
X156121258Y-103771000D01*
X156096488Y-103766073D01*
X155947188Y-103736376D01*
X155783216Y-103668456D01*
X155635646Y-103569853D01*
X155510147Y-103444354D01*
X155411544Y-103296784D01*
X155343624Y-103132812D01*
X155309000Y-102958741D01*
X155309000Y-102781259D01*
X155343624Y-102607188D01*
X155411544Y-102443216D01*
X155510147Y-102295646D01*
X155635646Y-102170147D01*
X155783216Y-102071544D01*
X155947188Y-102003624D01*
X156096488Y-101973927D01*
X156121258Y-101969000D01*
X156298742Y-101969000D01*
X156323512Y-101973927D01*
G37*
G36*
X158863512Y-101973927D02*
G01*
X159012812Y-102003624D01*
X159176784Y-102071544D01*
X159324354Y-102170147D01*
X159449853Y-102295646D01*
X159548456Y-102443216D01*
X159616376Y-102607188D01*
X159651000Y-102781259D01*
X159651000Y-102958741D01*
X159616376Y-103132812D01*
X159548456Y-103296784D01*
X159449853Y-103444354D01*
X159324354Y-103569853D01*
X159176784Y-103668456D01*
X159012812Y-103736376D01*
X158863512Y-103766073D01*
X158838742Y-103771000D01*
X158661258Y-103771000D01*
X158636488Y-103766073D01*
X158487188Y-103736376D01*
X158323216Y-103668456D01*
X158175646Y-103569853D01*
X158050147Y-103444354D01*
X157951544Y-103296784D01*
X157883624Y-103132812D01*
X157849000Y-102958741D01*
X157849000Y-102781259D01*
X157883624Y-102607188D01*
X157951544Y-102443216D01*
X158050147Y-102295646D01*
X158175646Y-102170147D01*
X158323216Y-102071544D01*
X158487188Y-102003624D01*
X158636488Y-101973927D01*
X158661258Y-101969000D01*
X158838742Y-101969000D01*
X158863512Y-101973927D01*
G37*
G36*
X161403512Y-101973927D02*
G01*
X161552812Y-102003624D01*
X161716784Y-102071544D01*
X161864354Y-102170147D01*
X161989853Y-102295646D01*
X162088456Y-102443216D01*
X162156376Y-102607188D01*
X162191000Y-102781259D01*
X162191000Y-102958741D01*
X162156376Y-103132812D01*
X162088456Y-103296784D01*
X161989853Y-103444354D01*
X161864354Y-103569853D01*
X161716784Y-103668456D01*
X161552812Y-103736376D01*
X161403512Y-103766073D01*
X161378742Y-103771000D01*
X161201258Y-103771000D01*
X161176488Y-103766073D01*
X161027188Y-103736376D01*
X160863216Y-103668456D01*
X160715646Y-103569853D01*
X160590147Y-103444354D01*
X160491544Y-103296784D01*
X160423624Y-103132812D01*
X160389000Y-102958741D01*
X160389000Y-102781259D01*
X160423624Y-102607188D01*
X160491544Y-102443216D01*
X160590147Y-102295646D01*
X160715646Y-102170147D01*
X160863216Y-102071544D01*
X161027188Y-102003624D01*
X161176488Y-101973927D01*
X161201258Y-101969000D01*
X161378742Y-101969000D01*
X161403512Y-101973927D01*
G37*
G36*
X163943512Y-101973927D02*
G01*
X164092812Y-102003624D01*
X164256784Y-102071544D01*
X164404354Y-102170147D01*
X164529853Y-102295646D01*
X164628456Y-102443216D01*
X164696376Y-102607188D01*
X164731000Y-102781259D01*
X164731000Y-102958741D01*
X164696376Y-103132812D01*
X164628456Y-103296784D01*
X164529853Y-103444354D01*
X164404354Y-103569853D01*
X164256784Y-103668456D01*
X164092812Y-103736376D01*
X163943512Y-103766073D01*
X163918742Y-103771000D01*
X163741258Y-103771000D01*
X163716488Y-103766073D01*
X163567188Y-103736376D01*
X163403216Y-103668456D01*
X163255646Y-103569853D01*
X163130147Y-103444354D01*
X163031544Y-103296784D01*
X162963624Y-103132812D01*
X162929000Y-102958741D01*
X162929000Y-102781259D01*
X162963624Y-102607188D01*
X163031544Y-102443216D01*
X163130147Y-102295646D01*
X163255646Y-102170147D01*
X163403216Y-102071544D01*
X163567188Y-102003624D01*
X163716488Y-101973927D01*
X163741258Y-101969000D01*
X163918742Y-101969000D01*
X163943512Y-101973927D01*
G37*
G36*
X166483512Y-101973927D02*
G01*
X166632812Y-102003624D01*
X166796784Y-102071544D01*
X166944354Y-102170147D01*
X167069853Y-102295646D01*
X167168456Y-102443216D01*
X167236376Y-102607188D01*
X167271000Y-102781259D01*
X167271000Y-102958741D01*
X167236376Y-103132812D01*
X167168456Y-103296784D01*
X167069853Y-103444354D01*
X166944354Y-103569853D01*
X166796784Y-103668456D01*
X166632812Y-103736376D01*
X166483512Y-103766073D01*
X166458742Y-103771000D01*
X166281258Y-103771000D01*
X166256488Y-103766073D01*
X166107188Y-103736376D01*
X165943216Y-103668456D01*
X165795646Y-103569853D01*
X165670147Y-103444354D01*
X165571544Y-103296784D01*
X165503624Y-103132812D01*
X165469000Y-102958741D01*
X165469000Y-102781259D01*
X165503624Y-102607188D01*
X165571544Y-102443216D01*
X165670147Y-102295646D01*
X165795646Y-102170147D01*
X165943216Y-102071544D01*
X166107188Y-102003624D01*
X166256488Y-101973927D01*
X166281258Y-101969000D01*
X166458742Y-101969000D01*
X166483512Y-101973927D01*
G37*
G36*
X169023512Y-101973927D02*
G01*
X169172812Y-102003624D01*
X169336784Y-102071544D01*
X169484354Y-102170147D01*
X169609853Y-102295646D01*
X169708456Y-102443216D01*
X169776376Y-102607188D01*
X169811000Y-102781259D01*
X169811000Y-102958741D01*
X169776376Y-103132812D01*
X169708456Y-103296784D01*
X169609853Y-103444354D01*
X169484354Y-103569853D01*
X169336784Y-103668456D01*
X169172812Y-103736376D01*
X169023512Y-103766073D01*
X168998742Y-103771000D01*
X168821258Y-103771000D01*
X168796488Y-103766073D01*
X168647188Y-103736376D01*
X168483216Y-103668456D01*
X168335646Y-103569853D01*
X168210147Y-103444354D01*
X168111544Y-103296784D01*
X168043624Y-103132812D01*
X168009000Y-102958741D01*
X168009000Y-102781259D01*
X168043624Y-102607188D01*
X168111544Y-102443216D01*
X168210147Y-102295646D01*
X168335646Y-102170147D01*
X168483216Y-102071544D01*
X168647188Y-102003624D01*
X168796488Y-101973927D01*
X168821258Y-101969000D01*
X168998742Y-101969000D01*
X169023512Y-101973927D01*
G37*
G36*
X171563512Y-101973927D02*
G01*
X171712812Y-102003624D01*
X171876784Y-102071544D01*
X172024354Y-102170147D01*
X172149853Y-102295646D01*
X172248456Y-102443216D01*
X172316376Y-102607188D01*
X172351000Y-102781259D01*
X172351000Y-102958741D01*
X172316376Y-103132812D01*
X172248456Y-103296784D01*
X172149853Y-103444354D01*
X172024354Y-103569853D01*
X171876784Y-103668456D01*
X171712812Y-103736376D01*
X171563512Y-103766073D01*
X171538742Y-103771000D01*
X171361258Y-103771000D01*
X171336488Y-103766073D01*
X171187188Y-103736376D01*
X171023216Y-103668456D01*
X170875646Y-103569853D01*
X170750147Y-103444354D01*
X170651544Y-103296784D01*
X170583624Y-103132812D01*
X170549000Y-102958741D01*
X170549000Y-102781259D01*
X170583624Y-102607188D01*
X170651544Y-102443216D01*
X170750147Y-102295646D01*
X170875646Y-102170147D01*
X171023216Y-102071544D01*
X171187188Y-102003624D01*
X171336488Y-101973927D01*
X171361258Y-101969000D01*
X171538742Y-101969000D01*
X171563512Y-101973927D01*
G37*
G36*
X175484549Y-101106116D02*
G01*
X175595734Y-101128232D01*
X175805203Y-101214997D01*
X175993720Y-101340960D01*
X176154040Y-101501280D01*
X176280003Y-101689797D01*
X176280004Y-101689799D01*
X176366768Y-101899267D01*
X176411000Y-102121635D01*
X176411000Y-102348365D01*
X176404301Y-102382042D01*
X176366768Y-102570734D01*
X176280003Y-102780203D01*
X176154040Y-102968720D01*
X175993720Y-103129040D01*
X175805203Y-103255003D01*
X175595734Y-103341768D01*
X175484549Y-103363884D01*
X175373365Y-103386000D01*
X175146635Y-103386000D01*
X175035451Y-103363884D01*
X174924266Y-103341768D01*
X174714797Y-103255003D01*
X174526280Y-103129040D01*
X174365960Y-102968720D01*
X174239997Y-102780203D01*
X174153232Y-102570734D01*
X174115699Y-102382042D01*
X174109000Y-102348365D01*
X174109000Y-102121635D01*
X174153232Y-101899267D01*
X174239996Y-101689799D01*
X174239997Y-101689797D01*
X174365960Y-101501280D01*
X174526280Y-101340960D01*
X174714797Y-101214997D01*
X174924266Y-101128232D01*
X175035451Y-101106116D01*
X175146635Y-101084000D01*
X175373365Y-101084000D01*
X175484549Y-101106116D01*
G37*
G36*
X129915256Y-99991298D02*
G01*
X130021579Y-100012447D01*
X130322042Y-100136903D01*
X130592451Y-100317585D01*
X130822415Y-100547549D01*
X131003097Y-100817958D01*
X131127553Y-101118421D01*
X131191000Y-101437391D01*
X131191000Y-101762609D01*
X131127553Y-102081579D01*
X131090867Y-102170147D01*
X131017047Y-102348365D01*
X131003097Y-102382042D01*
X130822415Y-102652451D01*
X130592451Y-102882415D01*
X130322042Y-103063097D01*
X130021579Y-103187553D01*
X129915256Y-103208702D01*
X129702611Y-103251000D01*
X129377389Y-103251000D01*
X129164744Y-103208702D01*
X129058421Y-103187553D01*
X128757958Y-103063097D01*
X128487549Y-102882415D01*
X128257585Y-102652451D01*
X128076903Y-102382042D01*
X128062954Y-102348365D01*
X127989133Y-102170147D01*
X127952447Y-102081579D01*
X127889000Y-101762609D01*
X127889000Y-101437391D01*
X127952447Y-101118421D01*
X128076903Y-100817958D01*
X128257585Y-100547549D01*
X128487549Y-100317585D01*
X128757958Y-100136903D01*
X129058421Y-100012447D01*
X129164744Y-99991298D01*
X129377389Y-99949000D01*
X129702611Y-99949000D01*
X129915256Y-99991298D01*
G37*
G36*
X151281000Y-97918500D02*
G01*
X148669000Y-97918500D01*
X148669000Y-96816500D01*
X151281000Y-96816500D01*
X151281000Y-97918500D01*
G37*
G36*
X128970355Y-95562140D02*
G01*
X129034118Y-95568420D01*
X129124904Y-95595960D01*
X129156836Y-95605646D01*
X129269925Y-95666094D01*
X129369054Y-95747446D01*
X129450406Y-95846575D01*
X129510854Y-95959664D01*
X129510855Y-95959668D01*
X129548080Y-96082382D01*
X129560649Y-96210000D01*
X129548080Y-96337618D01*
X129520540Y-96428404D01*
X129510854Y-96460336D01*
X129450406Y-96573425D01*
X129369054Y-96672554D01*
X129269925Y-96753906D01*
X129156836Y-96814354D01*
X129149761Y-96816500D01*
X129034118Y-96851580D01*
X128970355Y-96857860D01*
X128938474Y-96861000D01*
X128174526Y-96861000D01*
X128142645Y-96857860D01*
X128078882Y-96851580D01*
X127963239Y-96816500D01*
X127956164Y-96814354D01*
X127843075Y-96753906D01*
X127743946Y-96672554D01*
X127662594Y-96573425D01*
X127602146Y-96460336D01*
X127592460Y-96428404D01*
X127564920Y-96337618D01*
X127552351Y-96210000D01*
X127564920Y-96082382D01*
X127602145Y-95959668D01*
X127602146Y-95959664D01*
X127662594Y-95846575D01*
X127743946Y-95747446D01*
X127843075Y-95666094D01*
X127956164Y-95605646D01*
X127988096Y-95595960D01*
X128078882Y-95568420D01*
X128142645Y-95562140D01*
X128174526Y-95559000D01*
X128938474Y-95559000D01*
X128970355Y-95562140D01*
G37*
G36*
X131482848Y-94463820D02*
G01*
X131482850Y-94463821D01*
X131482851Y-94463821D01*
X131624074Y-94522317D01*
X131624077Y-94522319D01*
X131751169Y-94607239D01*
X131859261Y-94715331D01*
X131944181Y-94842423D01*
X131944183Y-94842426D01*
X132002679Y-94983649D01*
X132002680Y-94983652D01*
X132032500Y-95133569D01*
X132032500Y-95286431D01*
X132014187Y-95378500D01*
X132002679Y-95436351D01*
X131944183Y-95577574D01*
X131944181Y-95577577D01*
X131859261Y-95704669D01*
X131751169Y-95812761D01*
X131624077Y-95897681D01*
X131624074Y-95897683D01*
X131482851Y-95956179D01*
X131482850Y-95956179D01*
X131482848Y-95956180D01*
X131332931Y-95986000D01*
X131180069Y-95986000D01*
X131030152Y-95956180D01*
X131030150Y-95956179D01*
X131030149Y-95956179D01*
X130888926Y-95897683D01*
X130888923Y-95897681D01*
X130761831Y-95812761D01*
X130653739Y-95704669D01*
X130568819Y-95577577D01*
X130568817Y-95577574D01*
X130510321Y-95436351D01*
X130498814Y-95378500D01*
X130480500Y-95286431D01*
X130480500Y-95133569D01*
X130510320Y-94983652D01*
X130510321Y-94983649D01*
X130568817Y-94842426D01*
X130568819Y-94842423D01*
X130653739Y-94715331D01*
X130761831Y-94607239D01*
X130888923Y-94522319D01*
X130888926Y-94522317D01*
X131030149Y-94463821D01*
X131030150Y-94463821D01*
X131030152Y-94463820D01*
X131180069Y-94434000D01*
X131332931Y-94434000D01*
X131482848Y-94463820D01*
G37*
G36*
X154591000Y-95378500D02*
G01*
X151979000Y-95378500D01*
X151979000Y-94276500D01*
X154591000Y-94276500D01*
X154591000Y-95378500D01*
G37*
G36*
X167910721Y-92920174D02*
G01*
X168010995Y-92961709D01*
X168010996Y-92961710D01*
X168101242Y-93022010D01*
X168177990Y-93098758D01*
X168177991Y-93098760D01*
X168238291Y-93189005D01*
X168279826Y-93289279D01*
X168301000Y-93395730D01*
X168301000Y-93504270D01*
X168279826Y-93610721D01*
X168238291Y-93710995D01*
X168238290Y-93710996D01*
X168177990Y-93801242D01*
X168101242Y-93877990D01*
X168055812Y-93908345D01*
X168010995Y-93938291D01*
X167910721Y-93979826D01*
X167804270Y-94001000D01*
X167695730Y-94001000D01*
X167589279Y-93979826D01*
X167489005Y-93938291D01*
X167444188Y-93908345D01*
X167398758Y-93877990D01*
X167322010Y-93801242D01*
X167261710Y-93710996D01*
X167261709Y-93710995D01*
X167220174Y-93610721D01*
X167199000Y-93504270D01*
X167199000Y-93395730D01*
X167220174Y-93289279D01*
X167261709Y-93189005D01*
X167322009Y-93098760D01*
X167322010Y-93098758D01*
X167398758Y-93022010D01*
X167489004Y-92961710D01*
X167489005Y-92961709D01*
X167589279Y-92920174D01*
X167695730Y-92899000D01*
X167804270Y-92899000D01*
X167910721Y-92920174D01*
G37*
G36*
X151281000Y-92838500D02*
G01*
X148669000Y-92838500D01*
X148669000Y-91736500D01*
X151281000Y-91736500D01*
X151281000Y-92838500D01*
G37*
G36*
X131482848Y-89463820D02*
G01*
X131482850Y-89463821D01*
X131482851Y-89463821D01*
X131624074Y-89522317D01*
X131624077Y-89522319D01*
X131751169Y-89607239D01*
X131859261Y-89715331D01*
X131944181Y-89842423D01*
X131944183Y-89842426D01*
X132002679Y-89983649D01*
X132032500Y-90133571D01*
X132032500Y-90286429D01*
X132002679Y-90436351D01*
X131944183Y-90577574D01*
X131944181Y-90577577D01*
X131859261Y-90704669D01*
X131751169Y-90812761D01*
X131624077Y-90897681D01*
X131624074Y-90897683D01*
X131482851Y-90956179D01*
X131482850Y-90956179D01*
X131482848Y-90956180D01*
X131332931Y-90986000D01*
X131180069Y-90986000D01*
X131030152Y-90956180D01*
X131030150Y-90956179D01*
X131030149Y-90956179D01*
X130888926Y-90897683D01*
X130888923Y-90897681D01*
X130761831Y-90812761D01*
X130653739Y-90704669D01*
X130568819Y-90577577D01*
X130568817Y-90577574D01*
X130510321Y-90436351D01*
X130480500Y-90286429D01*
X130480500Y-90133571D01*
X130510321Y-89983649D01*
X130568817Y-89842426D01*
X130568819Y-89842423D01*
X130653739Y-89715331D01*
X130761831Y-89607239D01*
X130888923Y-89522319D01*
X130888926Y-89522317D01*
X131030149Y-89463821D01*
X131030150Y-89463821D01*
X131030152Y-89463820D01*
X131180069Y-89434000D01*
X131332931Y-89434000D01*
X131482848Y-89463820D01*
G37*
G36*
X154591000Y-90298500D02*
G01*
X151979000Y-90298500D01*
X151979000Y-89196500D01*
X154591000Y-89196500D01*
X154591000Y-90298500D01*
G37*
G36*
X128970355Y-88562140D02*
G01*
X129034118Y-88568420D01*
X129124904Y-88595960D01*
X129156836Y-88605646D01*
X129269925Y-88666094D01*
X129369054Y-88747446D01*
X129450406Y-88846575D01*
X129510854Y-88959664D01*
X129510855Y-88959668D01*
X129548080Y-89082382D01*
X129560649Y-89210000D01*
X129548080Y-89337618D01*
X129520540Y-89428404D01*
X129510854Y-89460336D01*
X129450406Y-89573425D01*
X129369054Y-89672554D01*
X129269925Y-89753906D01*
X129156836Y-89814354D01*
X129124904Y-89824040D01*
X129034118Y-89851580D01*
X128970355Y-89857860D01*
X128938474Y-89861000D01*
X128174526Y-89861000D01*
X128142645Y-89857860D01*
X128078882Y-89851580D01*
X127988096Y-89824040D01*
X127956164Y-89814354D01*
X127843075Y-89753906D01*
X127743946Y-89672554D01*
X127662594Y-89573425D01*
X127602146Y-89460336D01*
X127592460Y-89428404D01*
X127564920Y-89337618D01*
X127552351Y-89210000D01*
X127564920Y-89082382D01*
X127602145Y-88959668D01*
X127602146Y-88959664D01*
X127662594Y-88846575D01*
X127743946Y-88747446D01*
X127843075Y-88666094D01*
X127956164Y-88605646D01*
X127988096Y-88595960D01*
X128078882Y-88568420D01*
X128142645Y-88562140D01*
X128174526Y-88559000D01*
X128938474Y-88559000D01*
X128970355Y-88562140D01*
G37*
G36*
X151281000Y-87758500D02*
G01*
X148669000Y-87758500D01*
X148669000Y-86656500D01*
X151281000Y-86656500D01*
X151281000Y-87758500D01*
G37*
G36*
X129915256Y-82211298D02*
G01*
X130021579Y-82232447D01*
X130322042Y-82356903D01*
X130592451Y-82537585D01*
X130822415Y-82767549D01*
X131003097Y-83037958D01*
X131003098Y-83037960D01*
X131017047Y-83071636D01*
X131127553Y-83338421D01*
X131191000Y-83657391D01*
X131191000Y-83982609D01*
X131127553Y-84301579D01*
X131003097Y-84602042D01*
X130822415Y-84872451D01*
X130592451Y-85102415D01*
X130322042Y-85283097D01*
X130021579Y-85407553D01*
X129915256Y-85428702D01*
X129702611Y-85471000D01*
X129377389Y-85471000D01*
X129164744Y-85428702D01*
X129058421Y-85407553D01*
X128757958Y-85283097D01*
X128487549Y-85102415D01*
X128257585Y-84872451D01*
X128076903Y-84602042D01*
X127952447Y-84301579D01*
X127889000Y-83982609D01*
X127889000Y-83657391D01*
X127952447Y-83338421D01*
X128062953Y-83071636D01*
X128076902Y-83037960D01*
X128076903Y-83037958D01*
X128257585Y-82767549D01*
X128487549Y-82537585D01*
X128757958Y-82356903D01*
X129058421Y-82232447D01*
X129164744Y-82211298D01*
X129377389Y-82169000D01*
X129702611Y-82169000D01*
X129915256Y-82211298D01*
G37*
G36*
X175484549Y-82056116D02*
G01*
X175595734Y-82078232D01*
X175805203Y-82164997D01*
X175993720Y-82290960D01*
X176154040Y-82451280D01*
X176280003Y-82639797D01*
X176332921Y-82767551D01*
X176366768Y-82849267D01*
X176404302Y-83037960D01*
X176411000Y-83071636D01*
X176411000Y-83298364D01*
X176366768Y-83520734D01*
X176280003Y-83730203D01*
X176154040Y-83918720D01*
X175993720Y-84079040D01*
X175805203Y-84205003D01*
X175595734Y-84291768D01*
X175484549Y-84313884D01*
X175373365Y-84336000D01*
X175146635Y-84336000D01*
X175035451Y-84313884D01*
X174924266Y-84291768D01*
X174714797Y-84205003D01*
X174526280Y-84079040D01*
X174365960Y-83918720D01*
X174239997Y-83730203D01*
X174153232Y-83520734D01*
X174109000Y-83298364D01*
X174109000Y-83071636D01*
X174115699Y-83037960D01*
X174153232Y-82849267D01*
X174187080Y-82767551D01*
X174239997Y-82639797D01*
X174365960Y-82451280D01*
X174526280Y-82290960D01*
X174714797Y-82164997D01*
X174924266Y-82078232D01*
X175035451Y-82056116D01*
X175146635Y-82034000D01*
X175373365Y-82034000D01*
X175484549Y-82056116D01*
G37*
G36*
X151243512Y-81653927D02*
G01*
X151392812Y-81683624D01*
X151556784Y-81751544D01*
X151704354Y-81850147D01*
X151829853Y-81975646D01*
X151928456Y-82123216D01*
X151996376Y-82287188D01*
X152031000Y-82461259D01*
X152031000Y-82638741D01*
X151996376Y-82812812D01*
X151928456Y-82976784D01*
X151829853Y-83124354D01*
X151704354Y-83249853D01*
X151556784Y-83348456D01*
X151392812Y-83416376D01*
X151243512Y-83446073D01*
X151218742Y-83451000D01*
X151041258Y-83451000D01*
X151016488Y-83446073D01*
X150867188Y-83416376D01*
X150703216Y-83348456D01*
X150555646Y-83249853D01*
X150430147Y-83124354D01*
X150331544Y-82976784D01*
X150263624Y-82812812D01*
X150229000Y-82638741D01*
X150229000Y-82461259D01*
X150263624Y-82287188D01*
X150331544Y-82123216D01*
X150430147Y-81975646D01*
X150555646Y-81850147D01*
X150703216Y-81751544D01*
X150867188Y-81683624D01*
X151016488Y-81653927D01*
X151041258Y-81649000D01*
X151218742Y-81649000D01*
X151243512Y-81653927D01*
G37*
G36*
X156323512Y-81653927D02*
G01*
X156472812Y-81683624D01*
X156636784Y-81751544D01*
X156784354Y-81850147D01*
X156909853Y-81975646D01*
X157008456Y-82123216D01*
X157076376Y-82287188D01*
X157111000Y-82461259D01*
X157111000Y-82638741D01*
X157076376Y-82812812D01*
X157008456Y-82976784D01*
X156909853Y-83124354D01*
X156784354Y-83249853D01*
X156636784Y-83348456D01*
X156472812Y-83416376D01*
X156323512Y-83446073D01*
X156298742Y-83451000D01*
X156121258Y-83451000D01*
X156096488Y-83446073D01*
X155947188Y-83416376D01*
X155783216Y-83348456D01*
X155635646Y-83249853D01*
X155510147Y-83124354D01*
X155411544Y-82976784D01*
X155343624Y-82812812D01*
X155309000Y-82638741D01*
X155309000Y-82461259D01*
X155343624Y-82287188D01*
X155411544Y-82123216D01*
X155510147Y-81975646D01*
X155635646Y-81850147D01*
X155783216Y-81751544D01*
X155947188Y-81683624D01*
X156096488Y-81653927D01*
X156121258Y-81649000D01*
X156298742Y-81649000D01*
X156323512Y-81653927D01*
G37*
G36*
X153783512Y-81653927D02*
G01*
X153932812Y-81683624D01*
X154096784Y-81751544D01*
X154244354Y-81850147D01*
X154369853Y-81975646D01*
X154468456Y-82123216D01*
X154536376Y-82287188D01*
X154571000Y-82461259D01*
X154571000Y-82638741D01*
X154536376Y-82812812D01*
X154468456Y-82976784D01*
X154369853Y-83124354D01*
X154244354Y-83249853D01*
X154096784Y-83348456D01*
X153932812Y-83416376D01*
X153783512Y-83446073D01*
X153758742Y-83451000D01*
X153581258Y-83451000D01*
X153556488Y-83446073D01*
X153407188Y-83416376D01*
X153243216Y-83348456D01*
X153095646Y-83249853D01*
X152970147Y-83124354D01*
X152871544Y-82976784D01*
X152803624Y-82812812D01*
X152769000Y-82638741D01*
X152769000Y-82461259D01*
X152803624Y-82287188D01*
X152871544Y-82123216D01*
X152970147Y-81975646D01*
X153095646Y-81850147D01*
X153243216Y-81751544D01*
X153407188Y-81683624D01*
X153556488Y-81653927D01*
X153581258Y-81649000D01*
X153758742Y-81649000D01*
X153783512Y-81653927D01*
G37*
G36*
X146163512Y-81653927D02*
G01*
X146312812Y-81683624D01*
X146476784Y-81751544D01*
X146624354Y-81850147D01*
X146749853Y-81975646D01*
X146848456Y-82123216D01*
X146916376Y-82287188D01*
X146951000Y-82461259D01*
X146951000Y-82638741D01*
X146916376Y-82812812D01*
X146848456Y-82976784D01*
X146749853Y-83124354D01*
X146624354Y-83249853D01*
X146476784Y-83348456D01*
X146312812Y-83416376D01*
X146163512Y-83446073D01*
X146138742Y-83451000D01*
X145961258Y-83451000D01*
X145936488Y-83446073D01*
X145787188Y-83416376D01*
X145623216Y-83348456D01*
X145475646Y-83249853D01*
X145350147Y-83124354D01*
X145251544Y-82976784D01*
X145183624Y-82812812D01*
X145149000Y-82638741D01*
X145149000Y-82461259D01*
X145183624Y-82287188D01*
X145251544Y-82123216D01*
X145350147Y-81975646D01*
X145475646Y-81850147D01*
X145623216Y-81751544D01*
X145787188Y-81683624D01*
X145936488Y-81653927D01*
X145961258Y-81649000D01*
X146138742Y-81649000D01*
X146163512Y-81653927D01*
G37*
G36*
X148703512Y-81653927D02*
G01*
X148852812Y-81683624D01*
X149016784Y-81751544D01*
X149164354Y-81850147D01*
X149289853Y-81975646D01*
X149388456Y-82123216D01*
X149456376Y-82287188D01*
X149491000Y-82461259D01*
X149491000Y-82638741D01*
X149456376Y-82812812D01*
X149388456Y-82976784D01*
X149289853Y-83124354D01*
X149164354Y-83249853D01*
X149016784Y-83348456D01*
X148852812Y-83416376D01*
X148703512Y-83446073D01*
X148678742Y-83451000D01*
X148501258Y-83451000D01*
X148476488Y-83446073D01*
X148327188Y-83416376D01*
X148163216Y-83348456D01*
X148015646Y-83249853D01*
X147890147Y-83124354D01*
X147791544Y-82976784D01*
X147723624Y-82812812D01*
X147689000Y-82638741D01*
X147689000Y-82461259D01*
X147723624Y-82287188D01*
X147791544Y-82123216D01*
X147890147Y-81975646D01*
X148015646Y-81850147D01*
X148163216Y-81751544D01*
X148327188Y-81683624D01*
X148476488Y-81653927D01*
X148501258Y-81649000D01*
X148678742Y-81649000D01*
X148703512Y-81653927D01*
G37*
G36*
X144411000Y-83451000D02*
G01*
X142609000Y-83451000D01*
X142609000Y-81649000D01*
X144411000Y-81649000D01*
X144411000Y-83451000D01*
G37*
G36*
X161403512Y-81653927D02*
G01*
X161552812Y-81683624D01*
X161716784Y-81751544D01*
X161864354Y-81850147D01*
X161989853Y-81975646D01*
X162088456Y-82123216D01*
X162156376Y-82287188D01*
X162191000Y-82461259D01*
X162191000Y-82638741D01*
X162156376Y-82812812D01*
X162088456Y-82976784D01*
X161989853Y-83124354D01*
X161864354Y-83249853D01*
X161716784Y-83348456D01*
X161552812Y-83416376D01*
X161403512Y-83446073D01*
X161378742Y-83451000D01*
X161201258Y-83451000D01*
X161176488Y-83446073D01*
X161027188Y-83416376D01*
X160863216Y-83348456D01*
X160715646Y-83249853D01*
X160590147Y-83124354D01*
X160491544Y-82976784D01*
X160423624Y-82812812D01*
X160389000Y-82638741D01*
X160389000Y-82461259D01*
X160423624Y-82287188D01*
X160491544Y-82123216D01*
X160590147Y-81975646D01*
X160715646Y-81850147D01*
X160863216Y-81751544D01*
X161027188Y-81683624D01*
X161176488Y-81653927D01*
X161201258Y-81649000D01*
X161378742Y-81649000D01*
X161403512Y-81653927D01*
G37*
G36*
X163943512Y-81653927D02*
G01*
X164092812Y-81683624D01*
X164256784Y-81751544D01*
X164404354Y-81850147D01*
X164529853Y-81975646D01*
X164628456Y-82123216D01*
X164696376Y-82287188D01*
X164731000Y-82461259D01*
X164731000Y-82638741D01*
X164696376Y-82812812D01*
X164628456Y-82976784D01*
X164529853Y-83124354D01*
X164404354Y-83249853D01*
X164256784Y-83348456D01*
X164092812Y-83416376D01*
X163943512Y-83446073D01*
X163918742Y-83451000D01*
X163741258Y-83451000D01*
X163716488Y-83446073D01*
X163567188Y-83416376D01*
X163403216Y-83348456D01*
X163255646Y-83249853D01*
X163130147Y-83124354D01*
X163031544Y-82976784D01*
X162963624Y-82812812D01*
X162929000Y-82638741D01*
X162929000Y-82461259D01*
X162963624Y-82287188D01*
X163031544Y-82123216D01*
X163130147Y-81975646D01*
X163255646Y-81850147D01*
X163403216Y-81751544D01*
X163567188Y-81683624D01*
X163716488Y-81653927D01*
X163741258Y-81649000D01*
X163918742Y-81649000D01*
X163943512Y-81653927D01*
G37*
G36*
X166483512Y-81653927D02*
G01*
X166632812Y-81683624D01*
X166796784Y-81751544D01*
X166944354Y-81850147D01*
X167069853Y-81975646D01*
X167168456Y-82123216D01*
X167236376Y-82287188D01*
X167271000Y-82461259D01*
X167271000Y-82638741D01*
X167236376Y-82812812D01*
X167168456Y-82976784D01*
X167069853Y-83124354D01*
X166944354Y-83249853D01*
X166796784Y-83348456D01*
X166632812Y-83416376D01*
X166483512Y-83446073D01*
X166458742Y-83451000D01*
X166281258Y-83451000D01*
X166256488Y-83446073D01*
X166107188Y-83416376D01*
X165943216Y-83348456D01*
X165795646Y-83249853D01*
X165670147Y-83124354D01*
X165571544Y-82976784D01*
X165503624Y-82812812D01*
X165469000Y-82638741D01*
X165469000Y-82461259D01*
X165503624Y-82287188D01*
X165571544Y-82123216D01*
X165670147Y-81975646D01*
X165795646Y-81850147D01*
X165943216Y-81751544D01*
X166107188Y-81683624D01*
X166256488Y-81653927D01*
X166281258Y-81649000D01*
X166458742Y-81649000D01*
X166483512Y-81653927D01*
G37*
G36*
X169023512Y-81653927D02*
G01*
X169172812Y-81683624D01*
X169336784Y-81751544D01*
X169484354Y-81850147D01*
X169609853Y-81975646D01*
X169708456Y-82123216D01*
X169776376Y-82287188D01*
X169811000Y-82461259D01*
X169811000Y-82638741D01*
X169776376Y-82812812D01*
X169708456Y-82976784D01*
X169609853Y-83124354D01*
X169484354Y-83249853D01*
X169336784Y-83348456D01*
X169172812Y-83416376D01*
X169023512Y-83446073D01*
X168998742Y-83451000D01*
X168821258Y-83451000D01*
X168796488Y-83446073D01*
X168647188Y-83416376D01*
X168483216Y-83348456D01*
X168335646Y-83249853D01*
X168210147Y-83124354D01*
X168111544Y-82976784D01*
X168043624Y-82812812D01*
X168009000Y-82638741D01*
X168009000Y-82461259D01*
X168043624Y-82287188D01*
X168111544Y-82123216D01*
X168210147Y-81975646D01*
X168335646Y-81850147D01*
X168483216Y-81751544D01*
X168647188Y-81683624D01*
X168796488Y-81653927D01*
X168821258Y-81649000D01*
X168998742Y-81649000D01*
X169023512Y-81653927D01*
G37*
G36*
X171563512Y-81653927D02*
G01*
X171712812Y-81683624D01*
X171876784Y-81751544D01*
X172024354Y-81850147D01*
X172149853Y-81975646D01*
X172248456Y-82123216D01*
X172316376Y-82287188D01*
X172351000Y-82461259D01*
X172351000Y-82638741D01*
X172316376Y-82812812D01*
X172248456Y-82976784D01*
X172149853Y-83124354D01*
X172024354Y-83249853D01*
X171876784Y-83348456D01*
X171712812Y-83416376D01*
X171563512Y-83446073D01*
X171538742Y-83451000D01*
X171361258Y-83451000D01*
X171336488Y-83446073D01*
X171187188Y-83416376D01*
X171023216Y-83348456D01*
X170875646Y-83249853D01*
X170750147Y-83124354D01*
X170651544Y-82976784D01*
X170583624Y-82812812D01*
X170549000Y-82638741D01*
X170549000Y-82461259D01*
X170583624Y-82287188D01*
X170651544Y-82123216D01*
X170750147Y-81975646D01*
X170875646Y-81850147D01*
X171023216Y-81751544D01*
X171187188Y-81683624D01*
X171336488Y-81653927D01*
X171361258Y-81649000D01*
X171538742Y-81649000D01*
X171563512Y-81653927D01*
G37*
G36*
X158863512Y-81653927D02*
G01*
X159012812Y-81683624D01*
X159176784Y-81751544D01*
X159324354Y-81850147D01*
X159449853Y-81975646D01*
X159548456Y-82123216D01*
X159616376Y-82287188D01*
X159651000Y-82461259D01*
X159651000Y-82638741D01*
X159616376Y-82812812D01*
X159548456Y-82976784D01*
X159449853Y-83124354D01*
X159324354Y-83249853D01*
X159176784Y-83348456D01*
X159012812Y-83416376D01*
X158863512Y-83446073D01*
X158838742Y-83451000D01*
X158661258Y-83451000D01*
X158636488Y-83446073D01*
X158487188Y-83416376D01*
X158323216Y-83348456D01*
X158175646Y-83249853D01*
X158050147Y-83124354D01*
X157951544Y-82976784D01*
X157883624Y-82812812D01*
X157849000Y-82638741D01*
X157849000Y-82461259D01*
X157883624Y-82287188D01*
X157951544Y-82123216D01*
X158050147Y-81975646D01*
X158175646Y-81850147D01*
X158323216Y-81751544D01*
X158487188Y-81683624D01*
X158636488Y-81653927D01*
X158661258Y-81649000D01*
X158838742Y-81649000D01*
X158863512Y-81653927D01*
G37*
M02*
