G04 #@! TF.GenerationSoftware,KiCad,Pcbnew,5.1.5+dfsg1-2build2*
G04 #@! TF.CreationDate,2020-07-13T22:27:38-05:00*
G04 #@! TF.ProjectId,kw41z-feather,6b773431-7a2d-4666-9561-746865722e6b,rev?*
G04 #@! TF.SameCoordinates,Original*
G04 #@! TF.FileFunction,Copper,L4,Bot*
G04 #@! TF.FilePolarity,Positive*
%FSLAX46Y46*%
G04 Gerber Fmt 4.6, Leading zero omitted, Abs format (unit mm)*
G04 Created by KiCad (PCBNEW 5.1.5+dfsg1-2build2) date 2020-07-13 22:27:38*
%MOMM*%
%LPD*%
G04 APERTURE LIST*
%ADD10R,2.510000X1.000000*%
%ADD11C,1.000000*%
%ADD12C,1.450000*%
%ADD13O,1.900000X1.200000*%
%ADD14C,3.200000*%
%ADD15O,1.700000X1.700000*%
%ADD16R,1.700000X1.700000*%
%ADD17C,0.450000*%
%ADD18C,0.600000*%
%ADD19C,0.300000*%
%ADD20C,0.150000*%
%ADD21C,0.100000*%
G04 APERTURE END LIST*
D10*
X153285000Y-89747500D03*
X153285000Y-94827500D03*
X149975000Y-87207500D03*
X149975000Y-92287500D03*
X149975000Y-97367500D03*
D11*
X167750000Y-93450000D03*
D12*
X131256500Y-90210000D03*
X131256500Y-95210000D03*
D13*
X128556500Y-89210000D03*
X128556500Y-96210000D03*
D14*
X129540000Y-83820000D03*
X129540000Y-101600000D03*
D15*
X171450000Y-82550000D03*
X168910000Y-82550000D03*
X166370000Y-82550000D03*
X163830000Y-82550000D03*
X161290000Y-82550000D03*
X158750000Y-82550000D03*
X156210000Y-82550000D03*
X153670000Y-82550000D03*
X151130000Y-82550000D03*
X148590000Y-82550000D03*
X146050000Y-82550000D03*
D16*
X143510000Y-82550000D03*
D15*
X171450000Y-102870000D03*
X168910000Y-102870000D03*
X166370000Y-102870000D03*
X163830000Y-102870000D03*
X161290000Y-102870000D03*
X158750000Y-102870000D03*
X156210000Y-102870000D03*
X153670000Y-102870000D03*
X151130000Y-102870000D03*
X148590000Y-102870000D03*
X146050000Y-102870000D03*
X143510000Y-102870000D03*
X140970000Y-102870000D03*
X138430000Y-102870000D03*
X135890000Y-102870000D03*
D16*
X133350000Y-102870000D03*
D17*
X172075000Y-90887500D03*
X172075000Y-89737500D03*
X172075000Y-88587500D03*
X172075000Y-87437500D03*
X172075000Y-86287500D03*
X172075000Y-85137500D03*
X172075000Y-94237500D03*
X172075000Y-95337500D03*
X172075000Y-96437500D03*
X172075000Y-101087500D03*
X172075000Y-98337500D03*
D18*
X171597500Y-99510000D03*
D17*
X128525000Y-91637500D03*
X128575000Y-93737500D03*
X168825000Y-98337500D03*
X170225000Y-99487500D03*
X136825000Y-88787500D03*
X136825000Y-88337500D03*
X132675000Y-82487500D03*
X153775000Y-93787500D03*
X152825000Y-93787500D03*
X156925000Y-92387500D03*
X156925000Y-91337500D03*
X156925000Y-93587500D03*
X156925000Y-94837500D03*
X153975000Y-91937500D03*
X154725000Y-91487500D03*
X153325000Y-91037500D03*
X152975000Y-91737500D03*
X153975000Y-94887500D03*
X152775000Y-94887500D03*
X138775000Y-88337500D03*
X133575000Y-93137500D03*
X133525000Y-92187500D03*
X171375000Y-87837500D03*
X170425000Y-96437500D03*
X171475000Y-94237500D03*
X171475000Y-93187500D03*
X171425000Y-92037500D03*
X161325000Y-93387500D03*
X169325000Y-85037500D03*
X160975000Y-85237500D03*
X153775000Y-84637500D03*
X157925000Y-98787500D03*
X157625000Y-99137500D03*
X160375000Y-94337500D03*
X150975000Y-97137500D03*
X150975000Y-97637500D03*
D18*
X145850000Y-85250000D03*
D17*
X138775000Y-88787500D03*
X154825000Y-92837500D03*
X164025000Y-89937500D03*
X165475000Y-89937500D03*
X164725000Y-90637500D03*
X166175000Y-90637500D03*
X166875000Y-89937500D03*
X166175000Y-89187500D03*
X165425000Y-91337500D03*
X165475000Y-88537500D03*
X164775000Y-89237500D03*
X148175000Y-86237500D03*
X148175000Y-85237500D03*
X165850000Y-97450000D03*
X165850000Y-96450000D03*
D18*
X139650000Y-91950000D03*
D17*
X145834962Y-96424990D03*
X137450000Y-94650000D03*
D18*
X138850000Y-90550000D03*
D17*
X145762500Y-91250000D03*
X155750000Y-85000022D03*
X157950000Y-86699980D03*
X160569998Y-90789999D03*
X162050000Y-87650000D03*
X169550000Y-91550000D03*
X166650000Y-94350000D03*
D18*
X138676683Y-98003289D03*
D17*
X152765000Y-87050020D03*
X172075000Y-93137500D03*
X172075000Y-92037500D03*
X130175000Y-94037500D03*
X166685052Y-85258088D03*
X166969998Y-85889999D03*
X167450000Y-86250000D03*
X164997072Y-100116929D03*
X165425000Y-100537500D03*
X164250000Y-94350000D03*
X162600021Y-93150000D03*
X162450000Y-92550000D03*
X161850000Y-92450000D03*
X161050000Y-91150000D03*
X161150000Y-91750000D03*
X161350000Y-88350000D03*
X161450000Y-87750000D03*
X168750000Y-92250000D03*
X166835000Y-97450000D03*
D18*
X160025000Y-97987500D03*
D17*
X161335000Y-94350000D03*
X168475000Y-84937500D03*
X169725000Y-92987500D03*
X170415000Y-92050000D03*
X170425000Y-93137500D03*
D18*
X170365000Y-87850000D03*
D17*
X170075000Y-86037500D03*
D18*
X144350000Y-86150000D03*
X143821334Y-93250011D03*
D17*
X152418670Y-100283201D03*
X162275000Y-99137500D03*
D18*
X141451233Y-92851233D03*
X141450000Y-91350000D03*
D17*
X150206801Y-88762489D03*
X150225000Y-89962500D03*
X167738815Y-93398245D03*
D18*
X140850000Y-98350000D03*
D17*
X144850000Y-92950000D03*
X152575000Y-88587500D03*
X163175000Y-84337500D03*
X153225000Y-96937500D03*
X163950000Y-84687490D03*
X152575000Y-96937500D03*
X164549979Y-85131260D03*
X168431101Y-87245719D03*
X158950000Y-90250000D03*
X159375000Y-94537500D03*
X165375000Y-84437500D03*
X159050000Y-90850000D03*
X168420744Y-86615653D03*
X159666391Y-94012995D03*
X169103432Y-87803432D03*
X159175000Y-91837500D03*
X158950000Y-95150000D03*
D18*
X132450000Y-89550000D03*
D17*
X134075000Y-101387524D03*
X153674754Y-98137479D03*
X155042847Y-96793296D03*
X153875000Y-96937456D03*
X169119489Y-87203645D03*
X151675000Y-95787500D03*
X149180765Y-93912510D03*
X149925000Y-95437500D03*
X155738130Y-88686135D03*
X155182333Y-98077834D03*
X154975000Y-97487500D03*
X157555702Y-88943210D03*
X156926986Y-87985367D03*
X149135000Y-87250000D03*
X127850000Y-97850000D03*
X127850000Y-87450000D03*
X148150000Y-87250000D03*
X148150000Y-88250000D03*
X136150000Y-98050000D03*
X160350000Y-93350000D03*
D18*
X142850000Y-90950000D03*
D17*
X153750000Y-86950000D03*
D18*
X147024990Y-89353890D03*
X157325000Y-97987500D03*
D17*
X133950000Y-90350000D03*
X135150000Y-91850000D03*
X170225000Y-89037500D03*
D19*
X145850000Y-84750000D02*
X143650000Y-82550000D01*
X145850000Y-85250000D02*
X145850000Y-84750000D01*
X133575000Y-93137500D02*
X133125000Y-92687500D01*
X133125000Y-92687500D02*
X131225000Y-92687500D01*
X130231499Y-91693999D02*
X130231499Y-89331001D01*
X131225000Y-92687500D02*
X130231499Y-91693999D01*
X130231499Y-89331001D02*
X130775000Y-88787500D01*
X130775000Y-88787500D02*
X138775000Y-88787500D01*
X138775000Y-88787500D02*
X138775000Y-88337500D01*
D20*
X163830000Y-101667919D02*
X163830000Y-102870000D01*
X166685052Y-85258088D02*
X166258998Y-85684142D01*
X166258998Y-85684142D02*
X166258998Y-87087500D01*
X166258998Y-87087500D02*
X165024999Y-88321499D01*
X165225001Y-89453501D02*
X164875000Y-89803502D01*
X165024999Y-88321499D02*
X165024999Y-88821497D01*
X165024999Y-88821497D02*
X165225001Y-89021499D01*
X164875000Y-89803502D02*
X164875000Y-90121498D01*
X164875000Y-90121498D02*
X165175001Y-90421499D01*
X163830000Y-100617999D02*
X163830000Y-101667919D01*
X165175001Y-90853501D02*
X164875000Y-91153502D01*
X165175001Y-90421499D02*
X165175001Y-90853501D01*
X165225001Y-89021499D02*
X165225001Y-89453501D01*
X164875000Y-91153502D02*
X164875000Y-99572999D01*
X164875000Y-99572999D02*
X163830000Y-100617999D01*
D21*
X165175000Y-99939001D02*
X164997072Y-100116929D01*
X166969998Y-85889999D02*
X166969998Y-87938489D01*
X165629001Y-90912499D02*
X165850001Y-91133499D01*
X166969998Y-87938489D02*
X166145988Y-88762499D01*
X166145988Y-88762499D02*
X165970999Y-88762499D01*
X165970999Y-88762499D02*
X165749999Y-88983499D01*
X165175000Y-92387500D02*
X165175000Y-99939001D01*
X165749999Y-89391501D02*
X165900001Y-89541503D01*
X165900001Y-90141501D02*
X165629001Y-90412501D01*
X165900001Y-89541503D02*
X165900001Y-90141501D01*
X165629001Y-90412501D02*
X165629001Y-90912499D01*
X165749999Y-88983499D02*
X165749999Y-89391501D01*
X165850001Y-91133499D02*
X165850001Y-91712499D01*
X165850001Y-91712499D02*
X165175000Y-92387500D01*
X166275000Y-94095998D02*
X165425000Y-94945998D01*
X166275000Y-91237500D02*
X166275000Y-94095998D01*
X165425000Y-100487500D02*
X165425000Y-100537500D01*
X166600001Y-90912499D02*
X166275000Y-91237500D01*
X166600001Y-90433499D02*
X166600001Y-90912499D01*
X166379001Y-90212499D02*
X166600001Y-90433499D01*
X165425000Y-94945998D02*
X165425000Y-100487500D01*
X167450000Y-88733498D02*
X166379001Y-89804497D01*
X166379001Y-89804497D02*
X166379001Y-90212499D01*
X167450000Y-86250000D02*
X167450000Y-88733498D01*
D20*
X162122824Y-101765398D02*
X164450000Y-99438222D01*
X153131744Y-101933247D02*
X153299593Y-101765398D01*
X151130000Y-102870000D02*
X152066753Y-101933247D01*
X152066753Y-101933247D02*
X153131744Y-101933247D01*
X153299593Y-101765398D02*
X162122824Y-101765398D01*
X164450000Y-99438222D02*
X164450000Y-96250000D01*
X164250000Y-96050000D02*
X164250000Y-94350000D01*
X164450000Y-96250000D02*
X164250000Y-96050000D01*
X153007476Y-101633236D02*
X153175325Y-101465387D01*
X161934613Y-101465387D02*
X163894302Y-99505698D01*
X149826764Y-101633236D02*
X153007476Y-101633236D01*
X163894302Y-94762479D02*
X162600021Y-93468198D01*
X148590000Y-102870000D02*
X149826764Y-101633236D01*
X162600021Y-93468198D02*
X162600021Y-93150000D01*
X163894302Y-99505698D02*
X163894302Y-94762479D01*
X153175325Y-101465387D02*
X161934613Y-101465387D01*
X162150011Y-93512511D02*
X162150011Y-92849989D01*
X152883208Y-101333225D02*
X153051057Y-101165376D01*
X161634624Y-101165376D02*
X163250000Y-99550000D01*
X162225001Y-92774999D02*
X162450000Y-92550000D01*
X162150011Y-92849989D02*
X162225001Y-92774999D01*
X163250000Y-94612500D02*
X162150011Y-93512511D01*
X163250000Y-99550000D02*
X163250000Y-94612500D01*
X147586775Y-101333225D02*
X152883208Y-101333225D01*
X146050000Y-102870000D02*
X147586775Y-101333225D01*
X153051057Y-101165376D02*
X161634624Y-101165376D01*
X143510000Y-102870000D02*
X145346786Y-101033214D01*
X162725001Y-94525001D02*
X162450000Y-94250000D01*
X162725001Y-99353501D02*
X162725001Y-94525001D01*
X161213137Y-100865365D02*
X162725001Y-99353501D01*
X152926789Y-100865365D02*
X161213137Y-100865365D01*
X152758940Y-101033214D02*
X152926789Y-100865365D01*
X145346786Y-101033214D02*
X152758940Y-101033214D01*
X162450000Y-94250000D02*
X162387500Y-94250000D01*
X162387500Y-94250000D02*
X161850000Y-93712500D01*
X161850000Y-93712500D02*
X161850000Y-92450000D01*
X169487500Y-92987500D02*
X168750000Y-92250000D01*
X169775000Y-92987500D02*
X169487500Y-92987500D01*
D21*
X171450000Y-84662500D02*
X171450000Y-82550000D01*
X170075000Y-86037500D02*
X171450000Y-84662500D01*
D20*
X146899999Y-85088003D02*
X146899999Y-83399999D01*
X146899999Y-83399999D02*
X146050000Y-82550000D01*
X144350000Y-86150000D02*
X145838002Y-86150000D01*
X145838002Y-86150000D02*
X146899999Y-85088003D01*
X152100472Y-100283201D02*
X152418670Y-100283201D01*
X147183201Y-100283201D02*
X152100472Y-100283201D01*
X143821334Y-96921334D02*
X147183201Y-100283201D01*
X143821334Y-93250011D02*
X143821334Y-96921334D01*
X140566797Y-100733203D02*
X152634672Y-100733203D01*
X152802521Y-100565354D02*
X160847146Y-100565354D01*
X162050001Y-99362499D02*
X162275000Y-99137500D01*
X160847146Y-100565354D02*
X162050001Y-99362499D01*
X152634672Y-100733203D02*
X152802521Y-100565354D01*
X138430000Y-102870000D02*
X140566797Y-100733203D01*
X141451233Y-91351233D02*
X141450000Y-91350000D01*
X141451233Y-92851233D02*
X141451233Y-91351233D01*
X150206801Y-89944301D02*
X150225000Y-89962500D01*
X150206801Y-88762489D02*
X150206801Y-89944301D01*
X142150000Y-97050000D02*
X140850000Y-98350000D01*
X144625001Y-92725001D02*
X143474999Y-92725001D01*
X144850000Y-92950000D02*
X144625001Y-92725001D01*
X143474999Y-92725001D02*
X142150000Y-94050000D01*
X142150000Y-94050000D02*
X142150000Y-97050000D01*
X162856802Y-84337500D02*
X163175000Y-84337500D01*
X157075000Y-88487500D02*
X161225000Y-84337500D01*
X152575000Y-88587500D02*
X153225000Y-87937500D01*
X161225000Y-84337500D02*
X162856802Y-84337500D01*
X153225000Y-87937500D02*
X156175000Y-87937500D01*
X156175000Y-87937500D02*
X156725000Y-88487500D01*
X156725000Y-88487500D02*
X157075000Y-88487500D01*
X163631802Y-84687490D02*
X163950000Y-84687490D01*
X155974978Y-97963244D02*
X155974978Y-97594662D01*
X153225000Y-96937500D02*
X153000001Y-97162499D01*
X153000001Y-97162499D02*
X153000001Y-98366003D01*
X153000001Y-98366003D02*
X153221487Y-98587489D01*
X162350731Y-84837490D02*
X163481802Y-84837490D01*
X156124999Y-97444641D02*
X156124999Y-91063222D01*
X155350733Y-98587489D02*
X155974978Y-97963244D01*
X153221487Y-98587489D02*
X155350733Y-98587489D01*
X163481802Y-84837490D02*
X163631802Y-84687490D01*
X155974978Y-97594662D02*
X156124999Y-97444641D01*
X156124999Y-91063222D02*
X162350731Y-84837490D01*
X156274989Y-98087511D02*
X156274989Y-97718930D01*
X156425010Y-91187490D02*
X162275000Y-85337500D01*
X152575000Y-96937500D02*
X152575000Y-98587500D01*
X156274989Y-97718930D02*
X156425010Y-97568909D01*
X155475000Y-98887500D02*
X156274989Y-98087511D01*
X156425010Y-97568909D02*
X156425010Y-91187490D01*
X152875000Y-98887500D02*
X155475000Y-98887500D01*
X152575000Y-98587500D02*
X152875000Y-98887500D01*
X162275000Y-85337500D02*
X163075000Y-85337500D01*
X163075000Y-85337500D02*
X163275000Y-85137500D01*
X163275000Y-85137500D02*
X164575000Y-85137500D01*
D21*
X159375000Y-94537500D02*
X157775000Y-92937500D01*
X157775000Y-91425000D02*
X158950000Y-90250000D01*
X157775000Y-92937500D02*
X157775000Y-91425000D01*
X158950000Y-89620998D02*
X158950000Y-89931802D01*
X158950000Y-89931802D02*
X158950000Y-90250000D01*
X158950000Y-89620998D02*
X158950000Y-89462500D01*
X158950000Y-89462500D02*
X162775000Y-85637500D01*
X162775000Y-85637500D02*
X164775000Y-85637500D01*
X165375000Y-85037500D02*
X165375000Y-84437500D01*
X164775000Y-85637500D02*
X165375000Y-85037500D01*
X166942410Y-84187480D02*
X165625020Y-84187480D01*
X167799988Y-85245058D02*
X167799988Y-85045058D01*
X167799988Y-85045058D02*
X166942410Y-84187480D01*
X168375022Y-85930386D02*
X168375022Y-85820092D01*
X168845745Y-86401109D02*
X168375022Y-85930386D01*
X168375022Y-85820092D02*
X167799988Y-85245058D01*
X168845745Y-86831075D02*
X168845745Y-86401109D01*
X165625020Y-84187480D02*
X165375000Y-84437500D01*
X168431101Y-87245719D02*
X168845745Y-86831075D01*
X159666391Y-94012995D02*
X159666391Y-93428891D01*
X159666391Y-93428891D02*
X158425000Y-92187500D01*
X158425000Y-91475000D02*
X159050000Y-90850000D01*
X158425000Y-92187500D02*
X158425000Y-91475000D01*
X159368198Y-90850000D02*
X159050000Y-90850000D01*
X168420744Y-86615653D02*
X168125011Y-86319920D01*
X167549977Y-85348615D02*
X167549977Y-85148615D01*
X166888851Y-84487489D02*
X166363935Y-84487489D01*
X167549977Y-85148615D02*
X166888851Y-84487489D01*
X159551424Y-90850000D02*
X159368198Y-90850000D01*
X164838913Y-86012511D02*
X164388913Y-86012511D01*
X164388913Y-86012511D02*
X159551424Y-90850000D01*
X168125011Y-85923649D02*
X167549977Y-85348615D01*
X166363935Y-84487489D02*
X164838913Y-86012511D01*
X168125011Y-86319920D02*
X168125011Y-85923649D01*
X167299966Y-85252172D02*
X166785294Y-84737500D01*
X159399999Y-91612501D02*
X159175000Y-91837500D01*
X169103432Y-87803432D02*
X168340932Y-87803432D01*
X164492470Y-86262522D02*
X159399999Y-91354993D01*
X167875000Y-86027206D02*
X167299966Y-85452172D01*
X164942470Y-86262522D02*
X164492470Y-86262522D01*
X166785294Y-84737500D02*
X166467492Y-84737500D01*
X167875000Y-87337500D02*
X167875000Y-86027206D01*
X168340932Y-87803432D02*
X167875000Y-87337500D01*
X167299966Y-85452172D02*
X167299966Y-85252172D01*
X166467492Y-84737500D02*
X164942470Y-86262522D01*
X159399999Y-91354993D02*
X159399999Y-91612501D01*
D20*
X152025000Y-98487502D02*
X152025000Y-96137500D01*
X156575000Y-98737500D02*
X155925000Y-99387500D01*
X152924998Y-99387500D02*
X152025000Y-98487502D01*
X158950000Y-95150000D02*
X158950000Y-95468198D01*
X156575000Y-97843198D02*
X156575000Y-98737500D01*
X152609999Y-95552501D02*
X154720001Y-95552501D01*
X152025000Y-96137500D02*
X152609999Y-95552501D01*
X154720001Y-95552501D02*
X154765001Y-95507501D01*
X155925000Y-99387500D02*
X152924998Y-99387500D01*
X154765001Y-95507501D02*
X154765001Y-94137500D01*
X158950000Y-95468198D02*
X156575000Y-97843198D01*
X154730000Y-94102499D02*
X154730000Y-94092500D01*
X154765001Y-94137500D02*
X154730000Y-94102499D01*
X154730000Y-94092500D02*
X153775000Y-93137500D01*
X153775000Y-93137500D02*
X148575000Y-93137500D01*
X148575000Y-93137500D02*
X148025000Y-92587500D01*
X148025000Y-92077498D02*
X149364998Y-90737500D01*
X148025000Y-92587500D02*
X148025000Y-92077498D01*
X153285000Y-90397500D02*
X153285000Y-89747500D01*
X152945000Y-90737500D02*
X153285000Y-90397500D01*
X149364998Y-90737500D02*
X152945000Y-90737500D01*
X132450000Y-89550000D02*
X134075000Y-91175000D01*
X134075000Y-91175000D02*
X134075000Y-101387524D01*
D21*
X155018937Y-96793296D02*
X155042847Y-96793296D01*
X153674754Y-98137479D02*
X155018937Y-96793296D01*
D20*
X153525000Y-92287500D02*
X149975000Y-92287500D01*
X155065012Y-93827512D02*
X153525000Y-92287500D01*
X155065012Y-95747444D02*
X155065012Y-93827512D01*
X153875000Y-96937456D02*
X155065012Y-95747444D01*
D21*
X148871000Y-83912498D02*
X147575000Y-85208498D01*
X168625033Y-85716535D02*
X168049999Y-85141501D01*
X169119489Y-86321285D02*
X168625033Y-85826829D01*
X148461087Y-93412511D02*
X149300011Y-93412511D01*
X168049999Y-84941501D02*
X167020996Y-83912498D01*
X147575000Y-92526424D02*
X148461087Y-93412511D01*
X169119489Y-87203645D02*
X169119489Y-86321285D01*
X151450001Y-95562501D02*
X151675000Y-95787500D01*
X168625033Y-85826829D02*
X168625033Y-85716535D01*
X147575000Y-85208498D02*
X147575000Y-92526424D01*
X149300011Y-93412511D02*
X151450001Y-95562501D01*
X167020996Y-83912498D02*
X148871000Y-83912498D01*
X168049999Y-85141501D02*
X168049999Y-84941501D01*
D20*
X149180765Y-94693265D02*
X149180765Y-93912510D01*
X149925000Y-95437500D02*
X149180765Y-94693265D01*
X155407332Y-97852835D02*
X155407332Y-97738029D01*
X155824988Y-97320373D02*
X155824988Y-89091191D01*
X155407332Y-97738029D02*
X155824988Y-97320373D01*
X155824988Y-89091191D02*
X155738130Y-89004333D01*
X155182333Y-98077834D02*
X155407332Y-97852835D01*
X155738130Y-89004333D02*
X155738130Y-88686135D01*
X155458581Y-97262501D02*
X155492848Y-97228234D01*
X154975000Y-97487500D02*
X155199999Y-97262501D01*
X155199999Y-97262501D02*
X155458581Y-97262501D01*
X155492848Y-97228234D02*
X155492848Y-95505348D01*
D21*
X155250001Y-88545262D02*
X155534129Y-88261134D01*
X155534129Y-88261134D02*
X156009710Y-88261134D01*
X155492848Y-93866424D02*
X155250001Y-93623577D01*
X157237504Y-88943210D02*
X157555702Y-88943210D01*
X156691786Y-88943210D02*
X157237504Y-88943210D01*
X155492848Y-95505348D02*
X155492848Y-93866424D01*
X155250001Y-93623577D02*
X155250001Y-88545262D01*
X156009710Y-88261134D02*
X156691786Y-88943210D01*
D20*
X156701987Y-87760368D02*
X156926986Y-87985367D01*
X151024989Y-87637489D02*
X156579108Y-87637489D01*
X156579108Y-87637489D02*
X156701987Y-87760368D01*
X150825000Y-87437500D02*
X151024989Y-87637489D01*
D19*
X157825000Y-97987500D02*
X157325000Y-97987500D01*
X156101045Y-99812511D02*
X157325000Y-98588556D01*
X147024990Y-89353890D02*
X146724991Y-89653889D01*
X146724991Y-98487491D02*
X151423935Y-98487491D01*
X146724991Y-89653889D02*
X146724991Y-98487491D01*
X151423935Y-98487491D02*
X152748955Y-99812511D01*
X152748955Y-99812511D02*
X156101045Y-99812511D01*
X157325000Y-98588556D02*
X157325000Y-97987500D01*
D20*
X135150000Y-91550000D02*
X135150000Y-91850000D01*
X133950000Y-90350000D02*
X135150000Y-91550000D01*
D21*
X169649999Y-88462499D02*
X170000001Y-88812501D01*
X169649999Y-85833499D02*
X169649999Y-88462499D01*
X170000001Y-88812501D02*
X170225000Y-89037500D01*
X169750001Y-85733497D02*
X169649999Y-85833499D01*
X169750001Y-84833499D02*
X169750001Y-85733497D01*
X169529001Y-84612499D02*
X169750001Y-84833499D01*
X169120999Y-84612499D02*
X169529001Y-84612499D01*
X167219999Y-83399999D02*
X167908499Y-83399999D01*
X167908499Y-83399999D02*
X169120999Y-84612499D01*
X166370000Y-82550000D02*
X167219999Y-83399999D01*
M02*
