G04 #@! TF.GenerationSoftware,KiCad,Pcbnew,5.1.5+dfsg1-2build2*
G04 #@! TF.CreationDate,2020-07-13T22:27:38-05:00*
G04 #@! TF.ProjectId,kw41z-feather,6b773431-7a2d-4666-9561-746865722e6b,rev?*
G04 #@! TF.SameCoordinates,Original*
G04 #@! TF.FileFunction,Legend,Bot*
G04 #@! TF.FilePolarity,Positive*
%FSLAX46Y46*%
G04 Gerber Fmt 4.6, Leading zero omitted, Abs format (unit mm)*
G04 Created by KiCad (PCBNEW 5.1.5+dfsg1-2build2) date 2020-07-13 22:27:38*
%MOMM*%
%LPD*%
G04 APERTURE LIST*
%ADD10C,0.120000*%
%ADD11C,0.150000*%
G04 APERTURE END LIST*
D10*
X150300000Y-91527500D02*
X150300000Y-87967500D01*
X150300000Y-96607500D02*
X150300000Y-93047500D01*
X152960000Y-88987500D02*
X152960000Y-85877500D01*
X152960000Y-94067500D02*
X152960000Y-90507500D01*
X152960000Y-86447500D02*
X152960000Y-85877500D01*
X150300000Y-98697500D02*
X150300000Y-98127500D01*
X150300000Y-98127500D02*
X148780000Y-98127500D01*
X152960000Y-98697500D02*
X152960000Y-95587500D01*
X150300000Y-85877500D02*
X152960000Y-85877500D01*
X150300000Y-98697500D02*
X152960000Y-98697500D01*
X168450000Y-93450000D02*
G75*
G03X168450000Y-93450000I-700000J0D01*
G01*
D11*
X151896666Y-99259404D02*
X151896666Y-99830833D01*
X151934761Y-99945119D01*
X152010952Y-100021309D01*
X152125238Y-100059404D01*
X152201428Y-100059404D01*
X151134761Y-99259404D02*
X151515714Y-99259404D01*
X151553809Y-99640357D01*
X151515714Y-99602261D01*
X151439523Y-99564166D01*
X151249047Y-99564166D01*
X151172857Y-99602261D01*
X151134761Y-99640357D01*
X151096666Y-99716547D01*
X151096666Y-99907023D01*
X151134761Y-99983214D01*
X151172857Y-100021309D01*
X151249047Y-100059404D01*
X151439523Y-100059404D01*
X151515714Y-100021309D01*
X151553809Y-99983214D01*
X168759523Y-94459904D02*
X168302380Y-94459904D01*
X168530952Y-95259904D02*
X168530952Y-94459904D01*
X168035714Y-95259904D02*
X168035714Y-94459904D01*
X167730952Y-94459904D01*
X167654761Y-94498000D01*
X167616666Y-94536095D01*
X167578571Y-94612285D01*
X167578571Y-94726571D01*
X167616666Y-94802761D01*
X167654761Y-94840857D01*
X167730952Y-94878952D01*
X168035714Y-94878952D01*
X166816666Y-95259904D02*
X167273809Y-95259904D01*
X167045238Y-95259904D02*
X167045238Y-94459904D01*
X167121428Y-94574190D01*
X167197619Y-94650380D01*
X167273809Y-94688476D01*
M02*
